<svg width="851" height="553" viewBox="0 0 851 553" fill="none" xmlns="http://www.w3.org/2000/svg">
<path d="M577.27 463.05C575.69 464.92 573.84 467.15 572.27 469.05L509.75 456.45L505 434.67L566.3 451.06C565.9 454.73 569.08 457.87 570.3 459.06C572.232 460.943 574.615 462.299 577.22 463L577.27 463.05Z" fill="#E6E7E8"/>
<path d="M360.56 446.22L300.71 459.85C298.44 456 295.42 450.85 293.15 446.98C297.739 444.171 302.129 441.05 306.29 437.64L310.19 440.89L358.19 429.89L360.56 446.22Z" fill="#E6E7E8"/>
<path d="M306.29 437.64C302.13 441.057 297.739 444.184 293.15 447L306.29 437.64Z" fill="#06D6A0"/>
<path d="M267.32 387.75L258.07 400.81L257.78 401.23L248.56 392L261 380.74C262.68 382.62 265.64 385.87 267.32 387.75Z" fill="#E6E7E8"/>
<path d="M289.37 402.3V402.37C288.75 402.439 288.14 402.576 287.55 402.78C286.466 403.166 285.469 403.765 284.619 404.541C283.769 405.317 283.083 406.255 282.6 407.3L276.85 401.08L276.1 401.56C272.659 403.7 268.792 405.065 264.77 405.56C265.187 407.978 265.036 410.46 264.33 412.81C263.849 414.365 263.094 415.821 262.1 417.11C260.537 419.106 258.464 420.644 256.1 421.56C254.861 421.746 253.595 421.629 252.41 421.22C251.54 420.821 250.756 420.257 250.1 419.56C248.994 418.205 248.232 416.603 247.88 414.89C247.619 413.292 247.692 411.658 248.095 410.09C248.498 408.522 249.222 407.054 250.22 405.78C252.938 404.625 255.479 403.093 257.77 401.23L258.06 400.81L267.31 387.75C267.42 387.45 267.52 387.17 267.61 386.9C269.14 385.9 273.74 382.9 279.07 382.81C282.505 382.754 285.899 383.562 288.94 385.16C289.38 385.39 289.75 385.61 290.03 385.78L294.03 394.15C292.65 396.59 290.81 399.86 289.37 402.3Z" fill="#913252"/>
<path d="M339.52 371.85C331.717 384.025 321.66 394.598 309.89 403C311.6 407.24 312.89 410.89 313.74 413.67C315.48 419.1 315.74 420.9 315.23 422.85C314.483 425.386 312.892 427.592 310.72 429.1C310.674 428.6 310.587 428.105 310.46 427.62C310.318 426.772 309.975 425.969 309.46 425.28C309.08 422.97 308.95 420.47 308.57 418.16C307.84 419.69 306.77 421.79 306.04 423.32C305.31 423.24 304.571 423.27 303.85 423.41C304.801 422.177 305.396 420.707 305.57 419.16C305.765 417.242 305.393 415.309 304.5 413.6C303.6 410.48 302.94 407.13 302.03 404C301.32 406.16 300.41 408.86 299.7 411C299.15 411.059 298.607 411.173 298.08 411.34H298C298.173 410.243 298.125 409.123 297.861 408.045C297.597 406.967 297.12 405.952 296.46 405.06C295.72 401.71 294.85 397.51 294.11 394.17L290.11 385.8C297.15 374.22 305.613 363.567 315.3 354.09C315.4 359.72 316.38 365.35 316.48 370.98C323.67 371.06 332.26 371.75 339.52 371.85Z" fill="#913252"/>
<path d="M850.93 424.74C833.15 426.74 820.25 422.85 813.45 420.15C799.23 414.51 790.09 405.57 779.08 394.81C772.144 388.025 765.764 380.695 760 372.89C761.676 378.299 764.281 383.375 767.7 387.89C774.11 396.29 780.9 399.25 780.29 400.63C779.37 402.74 762.13 399.38 747.55 391.89C736.6 386.26 716.67 372.89 701.92 340.04C701.384 343.993 701.585 348.01 702.51 351.89C706.17 366.74 719.88 373.63 718.66 375.74C717.44 377.85 704.28 374.24 689.92 365.82C677.5 358.53 658.92 344.36 642.66 315.74C642.873 321.275 644.182 326.714 646.51 331.74C651.65 342.61 659.77 346.74 658.96 348.04C657.7 350.1 635.85 343.24 618.07 326.56C608.207 317.207 600.475 305.839 595.4 293.23C594.538 298.679 594.945 304.254 596.59 309.52C600.03 320.16 607.83 325.47 606.96 326.52C605.9 327.85 593.23 321.22 580.29 310.37C567.21 299.312 556.134 286.082 547.55 271.26C547.909 276.76 549.162 282.164 551.26 287.26C555.01 296.31 559.99 300.58 558.96 301.78C557.93 302.98 552.29 299.24 534.81 288.59C521.19 280.31 517.5 278.3 513.3 273C509.695 268.425 507.018 263.191 505.42 257.59H505.3C501.4 257.93 494.87 285.07 502.63 306.59C511.63 331.7 537.95 343.14 548.26 347.59C557.229 351.485 566.708 354.081 576.41 355.3C571.486 362.498 564.444 367.986 556.26 371C554.46 378 550.69 387.55 548.89 394.59C543.4 393.36 533.89 392.22 528.41 391C528.181 400.929 524.394 410.447 517.74 417.82C516.746 407.733 513.938 397.908 509.45 388.82C502.405 374.783 491.645 362.947 478.34 354.6C473.648 383.031 476.246 412.187 485.89 439.34C488.199 450.798 491.419 462.054 495.52 473C498.01 479.64 500.67 485.77 503.37 491.37C494.779 495.051 485.596 497.158 476.26 497.59C477.804 511.37 482.41 524.63 489.74 536.4C473.98 540.4 457.933 544.253 441.6 547.96C434.7 549.533 427.833 551.063 421 552.55C412.68 550.93 403.8 548.85 394.48 546.18C381.51 542.462 368.793 537.909 356.41 532.55C365.989 522.815 371.453 509.766 371.67 496.11C362.664 493.921 353.993 490.531 345.89 486.03C353.18 473.674 359.609 460.831 365.13 447.59C376.33 420.737 383.67 392.432 386.93 363.52C386.151 357.677 384.022 352.096 380.71 347.22C378.53 350.5 375.11 355.51 370.63 361.44C362.63 372 359.43 374.76 356.11 381C352.663 387.616 350.646 394.884 350.19 402.33C342.824 393.917 339.001 382.98 339.52 371.81C332.26 371.71 323.67 371.02 316.41 370.92C316.31 365.29 315.33 359.66 315.23 354.03C310.364 353.415 305.683 351.778 301.495 349.226C297.307 346.673 293.706 343.263 290.93 339.22C303.619 338.956 316.1 335.938 327.508 330.374C338.916 324.811 348.978 316.836 357 307C359.801 301.326 361.404 295.136 361.71 288.815C362.017 282.495 361.019 276.179 358.78 270.26C347.811 283.706 333.656 294.197 317.6 300.78C319.477 297.209 320.626 293.301 320.981 289.282C321.337 285.264 320.891 281.215 319.67 277.37C317.385 284.72 313.879 291.633 309.3 297.82C295.43 316.49 275.83 322.59 268.41 324.48C271.232 321.542 273.258 317.933 274.295 313.994C275.333 310.055 275.348 305.917 274.34 301.97C272.451 306.749 270.068 311.317 267.23 315.6C250.66 340.52 223.09 348.36 211.82 350.85C215.343 347.959 218.175 344.317 220.11 340.19C222.514 335.012 223.438 329.27 222.78 323.6C220.834 328.877 218.351 333.94 215.37 338.71C197.62 367.06 167.03 376.71 154.37 379.89C157.248 376.988 159.558 373.572 161.18 369.82C163.747 363.743 164.471 357.045 163.26 350.56C159.03 359.92 146.26 384.83 117.63 400.04C105.854 406.26 92.9627 410.087 79.7001 411.3C85.0003 407.993 89.2759 403.276 92.0486 397.678C94.8213 392.08 95.9817 385.82 95.4001 379.6C89.1566 391.796 80.6051 402.663 70.2201 411.6C42.9101 434.97 11.5001 437.13 0.590088 437.37C38.7697 396.016 72.7062 350.937 101.89 302.81C124.159 266.13 143.586 227.797 160 188.15C155.08 190.926 149.35 191.911 143.785 190.937C138.221 189.964 133.165 187.092 129.48 182.81C136.262 180.511 142.665 177.218 148.48 173.04C164.9 161.19 172.02 145.41 174.85 137.78C190.85 106.78 221.56 87.02 254.55 86.78C291.25 86.55 315.06 110.63 319.44 115.23C335.29 132.6 358.87 135.39 372.78 125.01C385.39 115.59 385.78 98.52 385.78 96.01C386.78 91.75 388.11 82.83 383.41 74.68C382.772 73.5648 382.043 72.5045 381.23 71.51C375.577 73.9386 369.528 75.3145 363.38 75.57C361.38 75.64 358.18 75.4 356.45 75.27C356.2 72.98 355.93 70.54 355.65 68.07C362.737 67.0575 369.688 65.2494 376.37 62.68C381.439 60.5929 386.279 57.9856 390.81 54.9C386.752 55.5074 382.661 55.8747 378.56 56C372.842 56.1793 367.119 55.8816 361.45 55.11C358.999 55.1646 356.587 55.7336 354.37 56.78C353.166 57.3449 352.034 58.0534 351 58.89C348.53 60.8921 346.664 63.5404 345.61 66.54C345.43 67.05 345.31 67.47 345.23 67.77L337.45 57.77C337.26 56.87 335.96 50.21 340.34 45.32C340.751 44.8576 341.199 44.4296 341.68 44.04C342.751 43.1909 343.949 42.5159 345.23 42.04L350.63 38.35L371.89 23.82C373.588 23.5315 375.327 23.5928 377 24C378.64 24.42 379.52 25 379.89 24.67C380.47 24.13 377.39 21.93 377.45 18.89C377.517 17.7329 377.928 16.6221 378.63 15.7C381.33 11.7 387.35 10.89 391.23 9.93C399.52 7.87 399.52 5.02 406.93 2.37C420.71 -2.56 434.32 2.42 436.11 3.11C446.16 6.95 452.11 13.73 458.04 20.59C463.2 26.52 462.16 27.02 467.04 33.04C480 48.87 494.22 54 492.86 57.48C492.17 59.25 488.01 59.39 483.08 59.56C475.19 59.82 472.14 57.79 470.78 59.26C470.24 59.84 468.35 62.72 480.11 79.41C493.19 97.96 503.49 105.71 501.3 109.63C500.3 111.47 497.02 111.5 490.63 111.56C480.92 111.64 475.05 109.26 474.93 109.63C474.66 110.41 499.42 127.4 525 121.78C535.16 119.54 536 115.78 554.93 104C579.27 88.8 595.78 78.49 615.82 78.67C636.7 78.85 652.3 90.33 658.19 94.67C677.26 108.67 677.67 121.67 697.3 145.04C708.096 157.855 720.608 169.121 734.48 178.52C731.196 181.618 727.165 183.813 722.78 184.89C711.7 187.42 705.09 180.18 701.89 182.37C695.94 186.44 707.89 218.93 739.23 274.96C753.57 300.58 761.83 315.34 775.97 335.85C798.033 367.827 823.137 397.595 850.93 424.74Z" fill="#06D6A0"/>
<path d="M630.93 413.33C627.72 416.33 623.48 419.48 620.27 422.44L606.63 409.93C607.352 409.777 608.019 409.431 608.56 408.93C612.48 405.52 619.65 396.93 620.86 395.45L630.93 413.33Z" fill="#E6E7E8"/>
<path d="M350.63 38.3L345.23 42C343.949 42.4759 342.751 43.1509 341.68 44C340.89 37.58 339.87 29.48 339.08 23.06C339.264 21.9648 339.796 20.9578 340.596 20.1876C341.396 19.4174 342.423 18.9249 343.525 18.7826C344.626 18.6403 345.744 18.8558 346.714 19.3973C347.683 19.9388 348.453 20.7776 348.91 21.79C349.48 27.05 350.06 33.09 350.63 38.3Z" fill="#E6E7E8"/>
<path d="M356.41 75.26C355.417 79.9267 354.417 84.57 353.41 89.19L347.19 77.33C346.74 74.42 346.02 69.46 345.57 66.55C346.634 63.542 348.514 60.8896 351 58.89C352.034 58.0534 353.166 57.3449 354.37 56.78L355.61 68.06C355.89 70.53 356.16 73 356.41 75.26Z" fill="#E6E7E8"/>
<path d="M256.11 421.56L248.78 428.89C249.233 425.777 249.677 422.667 250.11 419.56C250.766 420.257 251.55 420.821 252.42 421.22C253.605 421.629 254.871 421.746 256.11 421.56Z" fill="#231F20"/>
<path d="M296.43 405C296.198 404.708 295.944 404.434 295.67 404.18C294.816 403.439 293.812 402.89 292.726 402.571C291.641 402.252 290.5 402.169 289.38 402.33V402.26C290.82 399.82 292.66 396.55 294.09 394.11C294.82 397.49 295.69 401.69 296.43 405Z" fill="#231F20"/>
<path d="M282.61 407.3C282.355 407.809 282.151 408.341 282 408.89C278.826 409.221 275.674 409.738 272.56 410.44C269.94 411.04 266.56 412.09 264.34 412.81C265.046 410.46 265.197 407.978 264.78 405.56C268.802 405.065 272.669 403.7 276.11 401.56L276.86 401.08L282.61 407.3Z" fill="#E6E7E8"/>
<path d="M298 411.32C297.827 413.015 297.128 414.613 296 415.89C293.71 418.33 290.38 417.45 286.67 418C281.97 418.69 275.55 421.84 268.67 433.22C266.152 433.773 263.578 434.035 261 434H259.52C255.05 433.88 253.86 433.48 253.23 433C251.39 431.72 250.34 428.88 250.03 427.64L256.11 421.56C258.474 420.644 260.547 419.106 262.11 417.11C263.104 415.821 263.859 414.365 264.34 412.81C266.53 412.09 269.94 411.04 272.56 410.44C275.674 409.738 278.826 409.221 282 408.89C282.151 408.341 282.355 407.809 282.61 407.3C283.093 406.255 283.779 405.317 284.629 404.541C285.479 403.765 286.476 403.166 287.56 402.78C288.15 402.576 288.76 402.439 289.38 402.37C290.5 402.209 291.641 402.292 292.726 402.611C293.812 402.93 294.816 403.479 295.67 404.22C295.944 404.474 296.198 404.748 296.43 405.04C297.096 405.93 297.577 406.944 297.847 408.022C298.116 409.1 298.168 410.221 298 411.32Z" fill="#913252"/>
<path d="M304.49 413.54C304.07 412.656 303.376 411.931 302.512 411.472C301.647 411.012 300.658 410.844 299.69 410.99C300.4 408.84 301.31 406.14 302.02 403.99C302.93 407.07 303.59 410.42 304.49 413.54Z" fill="#231F20"/>
<path d="M305.56 419.11C305.386 420.657 304.792 422.127 303.84 423.36C303.074 424.378 302.133 425.252 301.06 425.94L274.06 442.5C273.452 442.736 272.911 443.117 272.484 443.611C272.057 444.104 271.757 444.694 271.61 445.33C271.499 446.119 271.658 446.922 272.06 447.61L271.56 447.77C270.09 448.17 265.81 449.03 262.39 446.33C261.028 445.233 260.008 443.768 259.45 442.11C259.45 439.52 259.45 436.6 259.52 434H261C263.578 434.035 266.152 433.773 268.67 433.22C275.55 421.84 281.97 418.69 286.67 418C290.38 417.45 293.67 418.33 296 415.89C297.128 414.613 297.828 413.015 298 411.32H298.1C298.628 411.153 299.17 411.039 299.72 410.98C300.688 410.834 301.677 411.002 302.542 411.462C303.406 411.921 304.1 412.646 304.52 413.53C305.407 415.248 305.769 417.188 305.56 419.11Z" fill="#913252"/>
<path d="M309.45 425.23C309.059 424.669 308.551 424.199 307.96 423.854C307.369 423.508 306.711 423.296 306.03 423.23C306.76 421.7 307.83 419.6 308.56 418.07C308.94 420.42 309.07 422.92 309.45 425.23Z" fill="#231F20"/>
<path d="M310.48 431.94C310.06 433.618 309.16 435.136 307.89 436.31L306.29 437.64L293.15 447C292.42 447.45 291.68 447.89 290.92 448.33C286.996 450.608 282.943 452.655 278.78 454.46C277.694 454.509 276.611 454.313 275.61 453.887C274.61 453.462 273.718 452.817 273 452C272.136 450.751 271.637 449.286 271.56 447.77L272.06 447.61C271.658 446.922 271.499 446.119 271.61 445.33C271.757 444.694 272.057 444.104 272.484 443.611C272.911 443.117 273.452 442.736 274.06 442.5L301.06 425.94C302.133 425.252 303.074 424.378 303.84 423.36C304.561 423.22 305.3 423.19 306.03 423.27C306.711 423.336 307.37 423.548 307.96 423.894C308.551 424.239 309.059 424.709 309.45 425.27C309.965 425.959 310.308 426.762 310.45 427.61C310.577 428.095 310.664 428.59 310.71 429.09C310.791 430.046 310.713 431.009 310.48 431.94Z" fill="#913252"/>
<path d="M306.29 437.64C302.13 441.057 297.739 444.184 293.15 447L306.29 437.64Z" fill="#06D6A0"/>
<path d="M623.85 435.43L623.67 435.56C622.604 436.155 621.407 436.478 620.185 436.499C618.964 436.52 617.756 436.238 616.67 435.68C615.024 434.936 613.597 433.778 612.53 432.32C612.37 432.12 612.23 431.91 612.09 431.7L609.72 424.89C604.709 425.947 599.506 425.647 594.65 424.02L589.65 429.29C589.012 429.164 588.359 429.123 587.71 429.17C586.49 429.261 585.312 429.652 584.28 430.31L577.71 424.66C578.65 427.57 580.02 431.52 580.96 434.44C580.95 434.486 580.95 434.534 580.96 434.58C579.834 434.915 578.768 435.424 577.8 436.09V436.03C575.46 434.03 572.52 431.72 570.17 429.77C571.43 433.32 573.63 437.99 574.89 441.55C574.964 442.681 575.172 443.798 575.51 444.88C575.853 446.216 576.332 447.512 576.94 448.75C576.71 448.46 573.88 445.4 571.4 445.55C571.116 445.566 570.834 445.613 570.56 445.69L564 440.44L566.72 449.44C566.592 449.765 566.489 450.1 566.41 450.44C562.34 445.15 560.51 438.56 560.67 435.7C560.8 433.29 561.51 432.18 561.56 429.63C561.476 425.677 560.067 421.867 557.56 418.81L537.56 399.7L528.41 391C533.91 392.22 543.41 393.36 548.89 394.59C550.69 387.59 554.46 378.03 556.26 371C557.11 372.35 568.96 391.31 577.6 403.3C579.09 405.38 582.26 409.67 586.19 409.52C587.73 409.46 587.99 408.77 591.37 407.74C593.85 406.99 596.73 406.11 599.67 406.56C603.14 407.08 604.08 410.44 606.67 409.97C607.67 411.06 609.16 412.92 610.3 414.04C611.95 415.66 613.69 417.25 615.39 418.7C616.962 420.046 618.604 421.308 620.31 422.48C620.75 422.42 623.05 421.56 624.9 423.3C625.862 424.302 626.436 425.614 626.52 427C626.81 429.18 626.63 433.47 623.85 435.43Z" fill="#913252"/>
<path d="M623.85 435.43C623.17 438.54 622.41 442.06 621.73 445.17C621.37 444.52 621 443.83 620.62 443.12C619.31 440.66 617.92 437.92 616.69 435.68C617.776 436.238 618.984 436.52 620.205 436.499C621.426 436.478 622.623 436.155 623.69 435.56L623.85 435.43Z" fill="#231F20"/>
<path d="M584.31 430.32C582.772 431.279 581.605 432.731 581 434.44C580.06 431.52 578.69 427.57 577.75 424.66L584.31 430.32Z" fill="#231F20"/>
<path d="M612.55 432.32C609.822 431.581 606.958 431.496 604.19 432.07C600.993 432.971 598.181 434.901 596.19 437.56C596.218 436.535 596.041 435.515 595.67 434.56C595.162 433.273 594.351 432.128 593.307 431.221C592.263 430.315 591.015 429.673 589.67 429.35L594.67 424.08C599.526 425.707 604.729 426.007 609.74 424.95L612.11 431.76C612.25 431.91 612.39 432.12 612.55 432.32Z" fill="#E6E7E8"/>
<path d="M620.62 443.12C620.194 443.613 619.733 444.074 619.24 444.5C618.705 444.985 618.102 445.39 617.45 445.7C614.92 446.82 613.57 445.63 610.86 446.15C607.39 446.81 607.23 449.15 603.86 450C601.649 450.464 599.346 450.149 597.34 449.11C596.21 447.19 594.34 444.84 591.57 444.11C588.8 443.38 587.57 444.85 585.2 443.96C583.8 443.355 582.609 442.35 581.779 441.071C580.948 439.791 580.513 438.295 580.53 436.77C580.542 436.014 580.674 435.265 580.92 434.55C580.91 434.504 580.91 434.456 580.92 434.41C581.525 432.701 582.692 431.249 584.23 430.29C585.261 429.632 586.44 429.241 587.66 429.15C588.309 429.103 588.962 429.144 589.6 429.27C590.945 429.593 592.193 430.235 593.237 431.141C594.281 432.048 595.092 433.193 595.6 434.48C595.971 435.435 596.148 436.455 596.12 437.48C598.111 434.821 600.923 432.891 604.12 431.99C606.888 431.416 609.752 431.501 612.48 432.24C613.547 433.698 614.973 434.856 616.62 435.6C617.92 437.92 619.31 440.66 620.62 443.12Z" fill="#913252"/>
<path d="M577.78 436.1C576.695 436.811 575.834 437.817 575.3 439C574.972 439.799 574.812 440.657 574.83 441.52C573.57 437.96 571.37 433.29 570.11 429.74C572.46 431.74 575.4 434.05 577.74 436L577.78 436.1Z" fill="#231F20"/>
<path d="M621.15 451C620.61 456 615.68 458.3 615.45 458.4L614.56 458.8C613.058 459.446 611.493 459.935 609.89 460.26C607.024 460.962 604.037 461.01 601.15 460.4C595.68 459.02 596.01 455.4 590.86 454.03C586.38 452.85 585.11 455.32 581.6 453.66C579.524 452.58 577.864 450.843 576.88 448.72C576.272 447.482 575.793 446.186 575.45 444.85C575.112 443.768 574.904 442.651 574.83 441.52C574.812 440.657 574.971 439.799 575.3 439C575.828 437.803 576.689 436.782 577.78 436.06C578.748 435.394 579.814 434.885 580.94 434.55C580.694 435.265 580.563 436.014 580.55 436.77C580.533 438.295 580.968 439.791 581.799 441.071C582.629 442.35 583.82 443.355 585.22 443.96C587.59 444.85 588.92 443.45 591.59 444.11C594.26 444.77 596.23 447.11 597.36 449.11C599.366 450.149 601.669 450.464 603.88 450C607.22 449.19 607.38 446.81 610.88 446.15C613.59 445.63 614.94 446.82 617.47 445.7C618.122 445.39 618.725 444.985 619.26 444.5C620.574 446.407 621.236 448.686 621.15 451Z" fill="#913252"/>
<path d="M570.5 445.69C569.632 445.986 568.844 446.477 568.196 447.126C567.547 447.774 567.056 448.562 566.76 449.43L564.04 440.43L570.5 445.69Z" fill="#231F20"/>
<path d="M614.56 458.84C614.27 460.16 613.22 464.84 609.45 467.78C603.55 472.41 596.32 470.21 595.67 470C593.915 468.112 591.803 466.59 589.457 465.523C587.111 464.455 584.576 463.863 582 463.78C580.4 463.722 578.813 463.477 577.27 463.05C574.665 462.349 572.282 460.993 570.35 459.11C569.13 457.91 565.95 454.77 566.35 451.11C566.372 450.898 566.409 450.687 566.46 450.48C566.539 450.14 566.642 449.805 566.77 449.48C567.066 448.612 567.557 447.824 568.206 447.176C568.854 446.527 569.642 446.036 570.51 445.74C570.784 445.663 571.066 445.616 571.35 445.6C573.83 445.45 576.66 448.51 576.89 448.8C577.874 450.923 579.534 452.66 581.61 453.74C585.12 455.4 586.39 452.93 590.87 454.11C596.02 455.47 595.69 459.11 601.16 460.48C604.047 461.09 607.034 461.042 609.9 460.34C611.501 460.002 613.062 459.499 614.56 458.84Z" fill="#913252"/>
</svg>
