<svg width="230" height="143" viewBox="0 0 230 143" fill="none" xmlns="http://www.w3.org/2000/svg">
<path d="M156.206 119.879L154.861 121.42L138.038 118.186C137.609 116.322 137.183 114.457 136.759 112.593L153.246 116.797C153.133 117.742 153.994 118.554 154.322 118.852C154.847 119.343 155.496 119.697 156.206 119.879Z" fill="#414042" stroke="#231F20" stroke-width="0.25" stroke-miterlimit="10"/>
<path d="M97.8844 115.546L81.7773 119.047C81.1664 118.058 80.3537 116.735 79.7427 115.741C80.9758 115.02 82.1555 114.218 83.2737 113.343L84.3232 114.177L97.2412 111.352L97.8844 115.546Z" fill="#414042" stroke="#231F20" stroke-width="0.25" stroke-miterlimit="10"/>
<path d="M72.7913 100.53C72.5019 101.24 72.1213 101.914 71.6582 102.535C71.2508 103.08 70.7683 103.57 70.2238 103.992C69.5322 103.334 68.4341 102.281 67.7425 101.621L71.0904 98.7292C71.5425 99.2121 72.3391 100.047 72.7913 100.53Z" fill="#414042" stroke="#231F20" stroke-width="0.25" stroke-miterlimit="10"/>
<path d="M78.6124 99.8645L77.5494 101.793C76.9886 102.654 76.2417 103.39 75.3587 103.953L75.1569 104.076C74.2307 104.626 73.1902 104.977 72.1077 105.104C72.2199 105.725 72.1793 106.362 71.9893 106.966C71.8599 107.365 71.6567 107.739 71.3891 108.07C70.967 108.581 70.4095 108.976 69.7744 109.213C69.4408 109.261 69.1001 109.231 68.7813 109.126C68.548 109.023 68.3377 108.878 68.1623 108.699C67.8646 108.351 67.6596 107.94 67.5649 107.5C67.4947 107.09 67.5144 106.67 67.6228 106.267C67.7312 105.864 67.9259 105.488 68.1946 105.16C68.9259 104.864 69.6099 104.47 70.2265 103.992C70.771 103.57 71.2535 103.08 71.6609 102.535C72.1241 101.914 72.5046 101.24 72.794 100.53C72.8236 100.453 72.8505 100.381 72.8747 100.311C73.2865 100.055 74.5244 99.284 75.9589 99.2609C76.8824 99.2471 77.7948 99.4546 78.6124 99.8645Z" fill="#414042" stroke="#231F20" stroke-width="0.25" stroke-miterlimit="10"/>
<path d="M229.855 110.03C225.07 110.543 221.599 109.544 219.768 108.851C215.942 107.402 213.482 105.106 210.519 102.343C208.649 100.601 206.93 98.7179 205.376 96.7131C205.827 98.1024 206.528 99.4061 207.448 100.566C209.173 102.723 211 103.483 210.836 103.838C210.589 104.379 205.949 103.517 202.025 101.593C199.065 100.147 193.715 96.7131 189.745 88.2763C189.601 89.2915 189.655 90.3233 189.904 91.3197C190.889 95.1336 194.578 96.9032 194.25 97.4451C193.922 97.987 190.38 97.0599 186.515 94.8974C183.173 93.0251 178.173 89.3858 173.797 82.0354C173.854 83.4571 174.206 84.8537 174.833 86.1447C176.216 88.9364 178.401 89.9971 178.183 90.331C177.844 90.86 171.964 89.0982 167.179 84.8143C164.523 82.4093 162.442 79.4861 161.078 76.2439C160.846 77.6435 160.955 79.0752 161.398 80.4277C162.324 83.1603 164.423 84.5241 164.189 84.7938C163.904 85.1353 160.494 83.4326 157.011 80.646C153.491 77.806 150.51 74.408 148.2 70.6014C148.297 72.0139 148.634 73.4018 149.199 74.7107C150.208 77.035 151.548 78.1316 151.271 78.4398C150.994 78.748 149.476 77.7875 144.772 75.0523C141.114 72.936 140.121 72.4198 138.983 71.0817C138.013 69.9068 137.292 68.5624 136.862 67.124C136.851 67.1227 136.84 67.1227 136.83 67.124C135.78 67.2113 134.023 74.1816 136.111 79.7086C138.547 86.1575 145.617 89.0956 148.391 90.2385C150.805 91.2388 153.356 91.9055 155.967 92.2187C154.64 94.0533 152.749 95.4503 150.555 96.2175C150.784 96.5642 153.973 101.434 156.298 104.513C156.699 105.047 157.552 106.149 158.61 106.11L159.008 108.964C159.592 109.337 160.225 109.634 160.892 109.845L159.547 111.198C159.375 111.166 159.199 111.155 159.024 111.167C158.696 111.191 158.379 111.291 158.101 111.46L156.333 110.009C156.586 110.757 156.955 111.771 157.208 112.521C157.201 112.532 157.196 112.544 157.194 112.557C156.891 112.643 156.604 112.774 156.344 112.945V112.929C155.714 112.428 154.923 111.822 154.291 111.322C154.63 112.233 155.222 113.433 155.561 114.347C155.581 114.637 155.637 114.924 155.728 115.202C155.82 115.545 155.949 115.878 156.113 116.196C156.051 116.122 155.289 115.336 154.622 115.374C154.545 115.378 154.469 115.39 154.395 115.41L152.657 114.062L153.389 116.373C153.355 116.457 153.327 116.543 153.306 116.63C152.21 115.272 151.718 113.579 151.761 112.845C151.796 112.226 151.987 111.94 152 111.286C151.978 110.27 151.598 109.292 150.924 108.507L145.541 103.599L143.068 101.354C143.006 103.904 141.987 106.348 140.196 108.242C139.929 105.651 139.173 103.128 137.965 100.794C136.069 97.1889 133.174 94.1491 129.593 92.0055C128.33 99.3073 129.029 106.795 131.625 113.769C132.241 116.723 133.104 119.625 134.206 122.447C134.876 124.153 135.592 125.727 136.318 127.165C134.006 128.106 131.536 128.643 129.025 128.75C129.441 132.289 130.68 135.695 132.653 138.717C128.412 139.745 124.093 140.734 119.697 141.686C117.84 142.09 115.992 142.483 114.153 142.865C111.914 142.449 109.524 141.915 107.016 141.229C103.525 140.274 100.103 139.105 96.7706 137.729C99.3485 135.228 100.819 131.877 100.877 128.37C98.4529 127.809 96.1184 126.94 93.9367 125.786C95.8986 122.613 97.6287 119.314 99.1146 115.914C102.129 109.017 104.104 101.748 104.982 94.3221C104.772 92.8215 104.199 91.3881 103.308 90.1358C102.721 90.9782 101.801 92.2649 100.595 93.7879C98.4418 96.5 97.5806 97.2088 96.6871 98.8114C95.7595 100.511 95.2166 102.377 95.0939 104.29C93.1117 102.129 92.0826 99.3199 92.2224 96.4512C90.1212 99.5743 87.4147 102.286 84.2482 104.441C84.7084 105.53 85.0556 106.467 85.2844 107.181C85.7526 108.576 85.8226 109.038 85.6853 109.539C85.4843 110.191 85.0561 110.757 84.4716 111.144C84.4591 111.016 84.4357 110.889 84.4016 110.764C84.3633 110.546 84.271 110.34 84.1325 110.163C84.0302 109.57 83.9952 108.928 83.893 108.335C83.6965 108.728 83.4086 109.267 83.2121 109.66C83.0155 109.639 82.8168 109.647 82.6227 109.683C82.8787 109.366 83.0388 108.989 83.0856 108.591C83.1381 108.099 83.038 107.602 82.7976 107.163C82.5554 106.362 82.3778 105.502 82.1329 104.698C81.9418 105.253 81.6969 105.946 81.5058 106.496C81.3578 106.511 81.2118 106.54 81.0699 106.583H81.043C81.0894 106.301 81.0767 106.014 81.0055 105.737C80.9344 105.46 80.8062 105.199 80.6285 104.97C80.4294 104.11 80.1952 103.031 79.9961 102.173C79.6112 102.8 79.116 103.64 78.7285 104.266V104.284C78.5616 104.302 78.3974 104.337 78.2387 104.39C77.9444 104.487 77.6737 104.641 77.4425 104.84C77.2114 105.039 77.0245 105.281 76.8931 105.551L75.359 103.956C76.242 103.393 76.9889 102.656 77.5497 101.796L78.6128 99.867C78.7312 99.9261 78.8307 99.9826 78.9061 100.026C80.8044 97.0525 83.0855 94.3174 85.6961 91.8848C84.3866 91.727 83.1268 91.3064 81.9997 90.6509C80.8726 89.9953 79.9036 89.1196 79.1564 88.0812C82.5731 88.0108 85.9329 87.2325 89.0032 85.8001C92.0734 84.3677 94.7807 82.3155 96.9374 79.7856C97.6912 78.3283 98.1227 76.7385 98.2051 75.1152C98.2875 73.4919 98.0191 71.8698 97.4165 70.3497C94.4645 73.8031 90.6549 76.4976 86.3339 78.1881C86.839 77.271 87.1483 76.2673 87.2439 75.2352C87.3395 74.2032 87.2196 73.1633 86.891 72.1758C86.2696 74.0629 85.3198 75.8366 84.0814 77.4228C80.3486 82.2178 75.0738 83.7844 73.0769 84.2698C73.8363 83.5154 74.3814 82.5884 74.6607 81.5768C74.94 80.5651 74.9441 79.5022 74.6728 78.4886C74.1704 79.7151 73.5355 80.8883 72.7781 81.9892C68.3188 88.3893 60.899 90.4029 57.866 91.0424C58.8141 90.2998 59.5763 89.3644 60.097 88.3046C60.744 86.9748 60.9927 85.5001 60.8156 84.0438C60.2919 85.3991 59.6236 86.6995 58.8214 87.9245C54.0444 95.2056 45.8119 97.684 42.4048 98.5007C43.1794 97.7552 43.801 96.8781 44.2375 95.9144C44.9258 94.3529 45.1176 92.6327 44.7892 90.9679C43.6508 93.3718 40.2141 99.7694 32.5091 103.676C29.3365 105.275 25.8634 106.257 22.2904 106.568C23.7168 105.718 24.8675 104.507 25.6137 103.069C26.3599 101.631 26.6722 100.024 26.5157 98.4262C24.8354 101.558 22.534 104.349 19.7391 106.645C12.3893 112.647 3.93615 113.201 1 113.263C11.2773 102.646 20.4131 91.0717 28.2704 78.7146C34.2607 69.2938 39.4862 59.4491 43.9011 49.2667C42.577 49.9796 41.0349 50.2326 39.5373 49.9826C38.0397 49.7325 36.6792 48.9949 35.6874 47.8953C37.5125 47.3048 39.2358 46.4592 40.8008 45.3861C45.2198 42.3426 47.136 38.2899 47.8976 36.3303C52.2036 28.3686 60.4684 23.2937 69.3468 23.2321C79.2237 23.173 85.6315 29.3574 86.8103 30.5388C91.0759 34.9999 97.4219 35.7165 101.165 33.0506C104.559 30.6313 104.664 26.2472 104.664 25.6026C104.933 24.5085 105.291 22.2176 104.026 20.1244C103.855 19.838 103.658 19.5657 103.439 19.3103C101.918 19.934 100.29 20.2874 98.6356 20.353C98.0974 20.371 97.2362 20.3094 96.7706 20.276C96.7033 19.6878 96.6306 19.0612 96.5553 18.4268C98.4626 18.1668 100.333 17.7024 102.132 17.0425C103.496 16.5065 104.798 15.8369 106.018 15.0444C104.928 15.2009 103.83 15.2961 102.729 15.3295C101.19 15.373 99.6496 15.2939 98.1243 15.0932C97.4647 15.1072 96.8155 15.2533 96.2189 15.5221C95.8948 15.6672 95.5903 15.8491 95.3119 16.064C94.6472 16.5782 94.1451 17.2583 93.8613 18.0287C93.8129 18.1597 93.7806 18.2676 93.7591 18.3446L91.6653 15.7763C91.6142 15.5452 91.2643 13.8347 92.4431 12.5788C92.5545 12.4663 92.6751 12.3624 92.8037 12.2681C93.0935 12.0409 93.4197 11.8596 93.7698 11.7313L95.2231 10.7836L100.945 7.0519C101.402 6.98117 101.87 7.0004 102.32 7.1084C102.761 7.21627 102.998 7.36523 103.098 7.28047C103.254 7.14179 102.425 6.57676 102.441 5.79601C102.459 5.49883 102.57 5.21355 102.759 4.97672C103.485 3.96225 105.105 3.74138 106.15 3.49483C108.381 2.96576 108.381 2.2338 110.375 1.55321C114.083 0.287045 117.746 1.56605 118.228 1.74326C120.933 2.72948 122.534 4.47077 124.13 6.23261C125.518 7.7556 125.239 7.88402 126.552 9.43012C130.034 13.4957 133.869 14.8055 133.49 15.707C133.304 16.1616 132.185 16.1975 130.858 16.2412C128.734 16.308 127.914 15.7866 127.548 16.1642C127.402 16.3131 126.894 17.0528 130.059 21.3392C133.579 26.1034 136.351 28.0938 135.761 29.1006C135.492 29.5732 134.609 29.5809 132.89 29.5963C130.277 29.6168 128.697 29.0056 128.665 29.1006C128.592 29.3009 135.255 33.6644 142.14 32.221C144.874 31.6458 145.1 30.6801 150.194 27.6546C156.745 23.7509 161.188 21.103 166.581 21.1492C172.201 21.1954 176.399 24.1438 177.984 25.2584C183.116 28.854 183.227 32.1928 188.51 38.1949C191.415 41.4861 194.782 44.3795 198.516 46.7935C197.632 47.5892 196.547 48.1528 195.367 48.4295C192.385 49.0792 190.606 47.2198 189.745 47.7823C188.13 48.8275 191.36 57.1719 199.794 71.562C203.653 78.1419 205.876 81.9327 209.682 87.2002C215.619 95.4128 222.375 103.058 229.855 110.03Z" fill="#414042" stroke="#231F20" stroke-width="0.25" stroke-miterlimit="10"/>
<path d="M170.648 107.099C169.784 107.87 168.643 108.679 167.779 109.439C167.32 109.138 166.878 108.814 166.455 108.468C165.997 108.096 165.529 107.698 165.085 107.271C164.778 106.984 164.374 106.501 164.108 106.226C164.302 106.187 164.482 106.098 164.627 105.969C165.682 105.093 167.612 102.887 167.938 102.507L170.648 107.099Z" fill="#414042" stroke="#231F20" stroke-width="0.25" stroke-miterlimit="10"/>
<path d="M95.212 10.781L93.7695 11.7313C93.4194 11.8596 93.0932 12.0408 92.8034 12.268C92.5908 10.6192 92.3162 8.53888 92.1036 6.89005C92.1533 6.60876 92.2963 6.35014 92.5117 6.15234C92.727 5.95454 93.0033 5.82803 93.2997 5.79149C93.5962 5.75494 93.8971 5.81028 94.158 5.94935C94.419 6.08842 94.6262 6.30386 94.7491 6.56388C94.9025 7.90195 95.0586 9.44292 95.212 10.781Z" fill="#414042" stroke="#231F20" stroke-width="0.25" stroke-miterlimit="10"/>
<path d="M96.7676 20.2734C96.5002 21.4719 96.2311 22.6645 95.9602 23.851L94.3078 20.805C94.1867 20.0577 93.9929 18.7838 93.8718 18.0364C94.1555 17.266 94.6576 16.5859 95.3224 16.0717C95.6007 15.8568 95.9052 15.6749 96.2293 15.5298L96.5523 18.4319C96.6276 19.0586 96.7003 19.6853 96.7676 20.2734Z" fill="#414042" stroke="#231F20" stroke-width="0.25" stroke-miterlimit="10"/>
<path d="M72.8774 100.293C72.8774 100.293 72.8774 100.306 72.8774 100.311" stroke="#231F20" stroke-width="0.25" stroke-miterlimit="10"/>
<path d="M68.1596 108.699C68.0412 109.497 67.9219 110.296 67.8017 111.096L68.1381 110.775" stroke="#231F20" stroke-width="0.25" stroke-miterlimit="10"/>
<path d="M81.0399 106.583C80.9935 107.018 80.8052 107.429 80.5017 107.757C79.8854 108.383 78.9892 108.157 77.9908 108.299C76.7259 108.476 74.9981 109.285 73.1465 112.208C72.4688 112.35 71.7762 112.417 71.0823 112.408H70.684C69.481 112.377 69.1608 112.274 68.9912 112.151C68.4961 111.822 68.2135 111.093 68.13 110.774L69.7663 109.213C70.4015 108.976 70.9589 108.581 71.3811 108.07C71.6486 107.739 71.8519 107.365 71.9812 106.966C72.5706 106.781 73.4883 106.511 74.1934 106.357C75.0313 106.177 75.8796 106.044 76.7339 105.959C76.7746 105.818 76.8296 105.681 76.8981 105.551C77.0296 105.281 77.2164 105.039 77.4476 104.84C77.6787 104.641 77.9494 104.487 78.2437 104.39C78.4024 104.337 78.5667 104.302 78.7335 104.284C79.0349 104.243 79.342 104.264 79.6341 104.346C79.9262 104.428 80.1964 104.569 80.4263 104.76C80.5 104.825 80.5684 104.895 80.6309 104.97C80.8076 105.2 80.9348 105.461 81.0051 105.737C81.0753 106.014 81.0871 106.302 81.0399 106.583Z" fill="#414042" stroke="#231F20" stroke-width="0.25" stroke-miterlimit="10"/>
<path d="M76.9062 105.551C76.8377 105.681 76.7827 105.818 76.742 105.959C75.8877 106.044 75.0394 106.177 74.2015 106.357C73.4964 106.511 72.5867 106.781 71.9893 106.966C72.1793 106.362 72.2199 105.725 72.1077 105.104C73.1902 104.977 74.2307 104.626 75.1569 104.076L75.3587 103.953L76.9062 105.551Z" fill="#414042" stroke="#231F20" stroke-width="0.25" stroke-miterlimit="10"/>
<path d="M83.0826 108.579C83.0358 108.976 82.8757 109.354 82.6197 109.67C82.4135 109.932 82.1602 110.156 81.8715 110.333L74.6052 114.586C74.4415 114.646 74.2958 114.744 74.1809 114.871C74.066 114.998 73.9853 115.149 73.9458 115.313C73.916 115.515 73.9586 115.722 74.0669 115.898L73.9323 115.939C73.5367 116.042 72.3849 116.263 71.4645 115.569C71.0978 115.288 70.8233 114.912 70.6732 114.486C70.6732 113.82 70.6733 113.071 70.6921 112.403H71.0904C71.7842 112.412 72.4768 112.344 73.1546 112.202C75.0062 109.28 76.7339 108.471 77.9988 108.294C78.9973 108.152 79.8827 108.378 80.5097 107.752C80.8133 107.424 81.0015 107.013 81.048 106.578H81.0749C81.2168 106.535 81.3629 106.506 81.5109 106.491C81.7714 106.453 82.0376 106.496 82.2702 106.614C82.5028 106.732 82.6895 106.918 82.8027 107.146C83.0413 107.587 83.1387 108.085 83.0826 108.579Z" fill="#414042" stroke="#231F20" stroke-width="0.25" stroke-miterlimit="10"/>
<path d="M84.4067 111.879C84.2936 112.31 84.0514 112.7 83.7096 113.001L83.279 113.343C82.1591 114.219 80.9776 115.02 79.7427 115.741C79.5463 115.857 79.3471 115.97 79.1426 116.083C78.0866 116.668 76.9957 117.194 75.8754 117.657C75.5835 117.671 75.2923 117.621 75.0231 117.513C74.7539 117.404 74.5136 117.24 74.3199 117.031C74.0873 116.71 73.9531 116.334 73.9324 115.944L74.0669 115.903C73.9586 115.727 73.916 115.52 73.9458 115.318C73.9853 115.154 74.066 115.003 74.1809 114.876C74.2958 114.749 74.4415 114.651 74.6052 114.591L81.8715 110.338C82.1601 110.161 82.4135 109.937 82.6197 109.675C82.8138 109.639 83.0125 109.632 83.2091 109.652C83.3923 109.669 83.5695 109.724 83.7285 109.812C83.8874 109.901 84.0242 110.022 84.1295 110.166C84.268 110.343 84.3602 110.549 84.3986 110.767C84.4326 110.891 84.456 111.018 84.4686 111.147C84.4903 111.392 84.4693 111.64 84.4067 111.879Z" fill="#414042" stroke="#231F20" stroke-width="0.25" stroke-miterlimit="10"/>
<path d="M168.742 112.775L168.694 112.808C168.407 112.961 168.085 113.044 167.756 113.05C167.427 113.055 167.102 112.983 166.81 112.839C166.367 112.648 165.983 112.351 165.696 111.976C165.653 111.925 165.615 111.871 165.577 111.817L164.939 110.068C163.922 110.271 162.873 110.277 161.853 110.088C160.833 109.898 159.863 109.516 159 108.964L158.602 106.11C159.016 106.095 159.086 105.918 159.996 105.653C160.663 105.461 161.438 105.235 162.229 105.35C163.163 105.484 163.416 106.347 164.113 106.226C164.382 106.506 164.783 106.996 165.09 107.271C165.534 107.687 166.002 108.096 166.46 108.468C166.883 108.814 167.325 109.138 167.784 109.439C167.903 109.423 168.521 109.203 169.019 109.649C169.278 109.907 169.433 110.244 169.455 110.6C169.539 111.17 169.49 112.272 168.742 112.775Z" fill="#414042" stroke="#231F20" stroke-width="0.25" stroke-miterlimit="10"/>
<path d="M165.701 111.976C164.967 111.787 164.196 111.765 163.451 111.912C162.591 112.144 161.834 112.639 161.298 113.322C161.306 113.059 161.258 112.797 161.158 112.552C161.022 112.221 160.803 111.927 160.522 111.694C160.241 111.461 159.905 111.296 159.543 111.214L160.889 109.86C162.196 110.278 163.596 110.355 164.945 110.084L165.583 111.833C165.626 111.871 165.658 111.917 165.701 111.976Z" fill="#414042" stroke="#231F20" stroke-width="0.25" stroke-miterlimit="10"/>
<path d="M168.742 112.775C168.559 113.574 168.355 114.478 168.172 115.277C168.075 115.11 167.975 114.933 167.873 114.75" stroke="#231F20" stroke-width="0.25" stroke-miterlimit="10"/>
<path d="M167.873 114.743C167.758 114.869 167.634 114.987 167.502 115.097C167.358 115.222 167.195 115.325 167.02 115.405C166.339 115.693 165.976 115.387 165.246 115.521C164.312 115.69 164.269 116.291 163.362 116.509C162.767 116.629 162.147 116.548 161.608 116.281C161.304 115.788 160.8 115.184 160.055 114.997C159.309 114.809 158.978 115.187 158.34 114.958C157.964 114.803 157.643 114.545 157.42 114.216C157.196 113.888 157.079 113.503 157.084 113.112C157.087 112.918 157.122 112.725 157.189 112.541C157.19 112.529 157.195 112.516 157.202 112.506C157.365 112.067 157.679 111.694 158.093 111.447C158.371 111.279 158.688 111.178 159.016 111.155C159.191 111.143 159.366 111.153 159.538 111.185C159.9 111.268 160.236 111.433 160.517 111.666C160.798 111.899 161.016 112.193 161.153 112.524C161.253 112.769 161.3 113.031 161.293 113.294C161.829 112.611 162.585 112.116 163.446 111.884C164.191 111.737 164.961 111.759 165.696 111.948C165.983 112.323 166.367 112.62 166.81 112.811C167.146 113.415 167.51 114.118 167.873 114.743Z" fill="#414042" stroke="#231F20" stroke-width="0.25" stroke-miterlimit="10"/>
<path d="M168.016 116.797C167.87 118.081 166.543 118.672 166.482 118.698L166.242 118.8C165.838 118.966 165.417 119.092 164.985 119.175C164.214 119.356 163.41 119.368 162.633 119.211C161.161 118.857 161.25 117.927 159.864 117.575C158.658 117.272 158.316 117.907 157.372 117.48C156.813 117.203 156.366 116.757 156.101 116.212C155.938 115.894 155.809 115.561 155.717 115.218C155.626 114.94 155.57 114.653 155.55 114.362C155.542 114.141 155.582 113.921 155.668 113.715C155.81 113.408 156.042 113.146 156.336 112.96C156.596 112.789 156.883 112.658 157.186 112.572C157.12 112.756 157.084 112.948 157.081 113.142C157.077 113.534 157.193 113.918 157.417 114.247C157.641 114.575 157.961 114.834 158.338 114.989C158.976 115.218 159.334 114.858 160.052 115.028C160.771 115.197 161.301 115.798 161.605 116.312C162.145 116.579 162.765 116.659 163.36 116.54C164.259 116.332 164.302 115.721 165.244 115.551C165.973 115.418 166.336 115.724 167.017 115.436C167.193 115.356 167.355 115.252 167.499 115.128C167.855 115.616 168.036 116.202 168.016 116.797Z" fill="#414042" stroke="#231F20" stroke-width="0.25" stroke-miterlimit="10"/>
<path d="M166.242 118.787C166.164 119.126 165.881 120.328 164.867 121.083C163.279 122.273 161.333 121.708 161.158 121.654C160.686 121.169 160.118 120.778 159.486 120.504C158.855 120.23 158.173 120.077 157.479 120.056C157.049 120.045 156.622 119.985 156.206 119.879C155.504 119.699 154.862 119.351 154.341 118.867C154.013 118.559 153.152 117.747 153.265 116.812C153.271 116.758 153.281 116.704 153.294 116.651C153.316 116.563 153.344 116.477 153.378 116.394C153.458 116.171 153.59 115.968 153.764 115.802C153.939 115.635 154.151 115.509 154.384 115.433C154.458 115.413 154.534 115.401 154.61 115.397C155.278 115.359 156.04 116.145 156.101 116.219C156.366 116.764 156.813 117.21 157.372 117.488C158.316 117.914 158.658 117.28 159.864 117.583C161.25 117.932 161.161 118.867 162.633 119.219C163.41 119.376 164.214 119.363 164.985 119.183C165.417 119.093 165.838 118.96 166.242 118.787Z" fill="#414042" stroke="#231F20" stroke-width="0.25" stroke-miterlimit="10"/>
</svg>
