<svg width="219" height="132" viewBox="0 0 219 132" fill="none" xmlns="http://www.w3.org/2000/svg">
<path d="M148.765 109.936L147.484 111.348L131.465 108.385L130.251 103.26L145.947 107.112C145.839 107.978 146.659 108.722 146.972 108.995C147.471 109.446 148.089 109.77 148.765 109.936Z" fill="#D1D3D4" stroke="#231F20" stroke-width="0.25" stroke-miterlimit="10"/>
<path d="M93.2396 105.966L77.9022 109.174C77.3206 108.268 76.5494 107.056 75.9677 106.145C77.1417 105.484 78.2648 104.749 79.3294 103.947L80.3286 104.712L92.6272 102.123L93.2396 105.966Z" fill="#D1D3D4" stroke="#231F20" stroke-width="0.25" stroke-miterlimit="10"/>
<path d="M69.3495 92.2052C69.0741 92.8565 68.7117 93.4739 68.2708 94.0433C67.883 94.5424 67.4236 94.9913 66.9052 95.3777C66.2467 94.7752 65.1988 93.8103 64.5428 93.2054L67.7302 90.5554C68.1607 90.9979 68.9191 91.7628 69.3495 92.2052Z" fill="#D1D3D4" stroke="#231F20" stroke-width="0.25" stroke-miterlimit="10"/>
<path d="M74.8916 91.5957L73.8796 93.3632C73.3456 94.1517 72.6346 94.8265 71.7939 95.3424L71.6018 95.4554C70.72 95.9591 69.7294 96.2803 68.6988 96.3968C68.8056 96.9659 68.767 97.55 68.586 98.1031C68.4629 98.469 68.2694 98.8118 68.0147 99.1151C67.6141 99.5848 67.083 99.9467 66.4773 100.162C66.1598 100.206 65.8354 100.179 65.5319 100.082C65.309 99.9883 65.1081 99.8557 64.94 99.6917C64.6566 99.3729 64.4614 98.9957 64.3712 98.5926C64.3043 98.2166 64.3231 97.8319 64.4263 97.4628C64.5295 97.0938 64.7149 96.7485 64.9707 96.4486C65.667 96.1766 66.3182 95.8162 66.9052 95.3777C67.4236 94.9913 67.883 94.5425 68.2709 94.0433C68.7118 93.4739 69.0741 92.8565 69.3496 92.2052C69.3778 92.1346 69.4034 92.0687 69.4264 92.0052C69.8185 91.7698 70.9971 91.0638 72.3627 91.0426C73.2428 91.0295 74.1124 91.2197 74.8916 91.5957Z" fill="#D1D3D4" stroke="#231F20" stroke-width="0.25" stroke-miterlimit="10"/>
<path d="M218.883 100.911C214.327 101.381 211.022 100.466 209.28 99.8305C205.636 98.5032 203.294 96.3992 200.473 93.8668C198.694 92.2703 197.056 90.5451 195.577 88.708C196.006 89.9811 196.674 91.1757 197.55 92.2382C199.192 94.2151 200.932 94.9118 200.776 95.2365C200.54 95.7331 196.123 94.9424 192.387 93.1796C189.569 91.8546 184.475 88.708 180.696 80.9768C180.558 81.9071 180.61 82.8526 180.847 83.7657C181.785 87.2606 185.297 88.8821 184.985 89.3787C184.672 89.8753 181.3 89.0257 177.621 87.0441C174.439 85.3284 169.678 81.9935 165.512 75.2579C165.566 76.5606 165.902 77.8405 166.498 79.0234C167.815 81.5817 169.896 82.5537 169.688 82.8596C169.365 83.3444 163.767 81.7299 159.211 77.8043C156.683 75.6005 154.702 72.9218 153.403 69.9508C153.182 71.2332 153.286 72.5452 153.708 73.7846C154.589 76.2887 156.588 77.5384 156.365 77.7855C156.093 78.0985 152.847 76.5382 149.531 73.9846C146.18 71.3822 143.342 68.2684 141.143 64.7802C141.235 66.0745 141.556 67.3464 142.093 68.5458C143.054 70.6757 144.33 71.6806 144.066 71.963C143.802 72.2454 142.357 71.3652 137.878 68.8588C134.396 66.9195 133.451 66.4464 132.367 65.2203C131.443 64.1437 130.758 62.9117 130.348 61.5936C130.338 61.5924 130.328 61.5924 130.317 61.5936C129.318 61.6736 127.645 68.0609 129.633 73.1256C131.952 79.0352 138.683 81.7276 141.325 82.7749C143.623 83.6915 146.051 84.3025 148.537 84.5894C147.273 86.2706 145.473 87.5508 143.385 88.2538C143.602 88.5715 146.639 93.0337 148.852 95.8555C149.234 96.345 150.046 97.3547 151.053 97.3194L151.433 99.9341C151.988 100.276 152.591 100.548 153.226 100.741L151.945 101.982C151.781 101.952 151.614 101.942 151.448 101.953C151.135 101.975 150.833 102.067 150.569 102.222L148.886 100.892C149.127 101.577 149.478 102.506 149.718 103.194C149.712 103.204 149.707 103.215 149.706 103.227C149.417 103.305 149.144 103.425 148.896 103.582V103.568C148.296 103.109 147.543 102.554 146.941 102.095C147.264 102.93 147.828 104.029 148.15 104.867C148.169 105.133 148.223 105.396 148.309 105.651C148.397 105.965 148.52 106.27 148.676 106.561C148.617 106.493 147.892 105.773 147.256 105.808C147.183 105.812 147.111 105.823 147.041 105.841L145.386 104.606L146.083 106.724C146.05 106.8 146.023 106.879 146.003 106.959C144.96 105.714 144.492 104.163 144.533 103.49C144.566 102.923 144.748 102.662 144.761 102.062C144.739 101.131 144.378 100.235 143.736 99.5152L138.611 95.0177L136.257 92.9607C136.198 95.2976 135.228 97.5375 133.523 99.2728C133.268 96.8988 132.549 94.5866 131.399 92.4477C129.594 89.144 126.837 86.3584 123.428 84.3941C122.225 91.0851 122.891 97.947 125.362 104.337C125.949 107.044 126.77 109.704 127.819 112.29C128.457 113.853 129.139 115.295 129.831 116.613C127.629 117.475 125.277 117.967 122.887 118.065C123.283 121.308 124.463 124.429 126.341 127.199C122.303 128.141 118.191 129.047 114.006 129.92C112.238 130.29 110.479 130.65 108.728 131C106.596 130.619 104.321 130.129 101.933 129.501C98.6099 128.626 95.3517 127.554 92.1789 126.293C94.6331 124.002 96.0332 120.931 96.0888 117.717C93.7805 117.204 91.5579 116.407 89.4808 115.349C91.3487 112.442 92.9958 109.419 94.4105 106.303C97.2803 99.9827 99.1608 93.3213 99.9962 86.5169C99.7967 85.1418 99.251 83.8283 98.4025 82.6807C97.8439 83.4527 96.9676 84.6318 95.8198 86.0274C93.77 88.5127 92.9501 89.1622 92.0994 90.6308C91.2162 92.1879 90.6994 93.8982 90.5826 95.6507C88.6954 93.6708 87.7156 91.0967 87.8487 88.4679C85.8482 91.3299 83.2715 93.8149 80.2569 95.7896C80.695 96.7875 81.0256 97.6465 81.2433 98.3008C81.6892 99.5787 81.7558 100.002 81.6251 100.461C81.4337 101.058 81.026 101.577 80.4696 101.932C80.4576 101.815 80.4354 101.698 80.4029 101.584C80.3664 101.384 80.2786 101.195 80.1467 101.033C80.0493 100.49 80.016 99.9011 79.9187 99.3575C79.7316 99.7176 79.4575 100.212 79.2704 100.572C79.0833 100.553 78.8941 100.56 78.7093 100.593C78.9531 100.303 79.1055 99.957 79.15 99.5928C79.2 99.1414 79.1047 98.6864 78.8759 98.2843C78.6453 97.55 78.4762 96.7616 78.243 96.025C78.0611 96.5333 77.8279 97.1688 77.646 97.6724C77.5051 97.6863 77.366 97.7131 77.2309 97.7524H77.2053C77.2495 97.4943 77.2374 97.2307 77.1697 96.977C77.1019 96.7233 76.9799 96.4844 76.8107 96.2744C76.6211 95.486 76.3982 94.4976 76.2086 93.7115C75.8422 94.2857 75.3707 95.0553 75.0018 95.6296V95.646C74.8429 95.6623 74.6865 95.6946 74.5355 95.7425C74.2553 95.8321 73.9975 95.9724 73.7775 96.1551C73.5574 96.3378 73.3795 96.5593 73.2544 96.8063L71.7939 95.3448C72.6346 94.8289 73.3456 94.1541 73.8795 93.3655L74.8916 91.5981C75.0043 91.6522 75.0992 91.704 75.1709 91.744C76.9781 89.019 79.1499 86.5126 81.6354 84.2835C80.3886 84.1388 79.1892 83.7535 78.1161 83.1528C77.0431 82.552 76.1205 81.7495 75.4092 80.798C78.6621 80.7335 81.8608 80.0202 84.7839 78.7077C87.7069 77.3951 90.2844 75.5145 92.3377 73.1962C93.0553 71.8608 93.4661 70.404 93.5446 68.9164C93.6231 67.4289 93.3675 65.9425 92.7938 64.5495C89.9834 67.7141 86.3564 70.1832 82.2426 71.7324C82.7234 70.8919 83.0179 69.9722 83.1089 69.0264C83.2 68.0807 83.0858 67.1278 82.773 66.2229C82.1814 67.9521 81.2771 69.5775 80.098 71.031C76.5442 75.425 71.5223 76.8606 69.6211 77.3054C70.3442 76.614 70.8632 75.7646 71.129 74.8376C71.3949 73.9106 71.3989 72.9365 71.1405 72.0077C70.6623 73.1317 70.0577 74.2067 69.3367 75.2155C65.0912 81.0804 58.0271 82.9255 55.1395 83.5115C56.0422 82.831 56.7679 81.9739 57.2636 81.0027C57.8795 79.7842 58.1163 78.4328 57.9477 77.0983C57.4491 78.3403 56.8129 79.5319 56.0491 80.6544C51.5012 87.3265 43.6634 89.5976 40.4196 90.346C41.1571 89.6629 41.7489 88.8591 42.1645 87.9761C42.8197 86.5451 43.0024 84.9688 42.6897 83.4433C41.6059 85.6461 38.334 91.5086 30.9984 95.0883C27.9779 96.5533 24.6713 97.454 21.2697 97.7383C22.6277 96.96 23.7232 95.8499 24.4336 94.5324C25.144 93.2148 25.4413 91.7417 25.2923 90.2778C23.6926 93.148 21.5015 95.7057 18.8407 97.8089C11.8433 103.309 3.79537 103.817 1 103.874C10.7845 94.1444 19.4824 83.5384 26.9629 72.2148C32.666 63.5819 37.641 54.5606 41.8442 45.2298C40.5836 45.8831 39.1154 46.1149 37.6896 45.8858C36.2639 45.6567 34.9686 44.9807 34.0243 43.9731C35.7619 43.432 37.4025 42.6571 38.8925 41.6737C43.0997 38.8849 44.924 35.1711 45.6491 33.3754C49.7486 26.0796 57.6172 21.4291 66.0699 21.3726C75.4732 21.3185 81.5739 26.9857 82.6961 28.0683C86.7572 32.1563 92.7989 32.8129 96.3629 30.37C99.5939 28.153 99.6938 24.1356 99.6938 23.5449C99.95 22.5423 100.291 20.443 99.0866 18.5249C98.9232 18.2625 98.7363 18.0129 98.528 17.7789C97.0795 18.3504 95.5296 18.6743 93.9545 18.7344C93.442 18.7509 92.6221 18.6944 92.1789 18.6638C92.1148 18.1248 92.0456 17.5506 91.9739 16.9693C93.7898 16.731 95.5706 16.3055 97.2828 15.7008C98.5817 15.2096 99.8216 14.596 100.983 13.8698C99.9454 14.0132 98.8999 14.1004 97.8516 14.131C96.3863 14.1709 94.9199 14.0984 93.4676 13.9145C92.8397 13.9273 92.2216 14.0612 91.6536 14.3075C91.345 14.4405 91.0551 14.6072 90.7901 14.8041C90.1573 15.2753 89.6792 15.8985 89.4091 16.6045C89.363 16.7245 89.3322 16.8234 89.3117 16.894L87.3183 14.5405C87.2697 14.3287 86.9366 12.7613 88.0588 11.6104C88.1649 11.5073 88.2797 11.4121 88.4022 11.3256C88.6781 11.1175 88.9887 10.9514 89.322 10.8338L90.7056 9.96534L96.1528 6.54573C96.5886 6.48093 97.0341 6.49854 97.4621 6.59751C97.8823 6.69636 98.1078 6.83286 98.2026 6.75519C98.3512 6.62811 97.5621 6.11034 97.5774 5.39488C97.5946 5.12256 97.6999 4.86114 97.8798 4.64412C98.5716 3.7145 100.114 3.5121 101.108 3.28617C103.232 2.80135 103.232 2.13061 105.131 1.50694C108.662 0.346674 112.149 1.51871 112.607 1.6811C115.182 2.58483 116.707 4.18049 118.226 5.79497C119.548 7.19059 119.282 7.30826 120.532 8.72505C123.848 12.4506 127.499 13.6509 127.138 14.477C126.961 14.8935 125.895 14.9265 124.632 14.9665C122.61 15.0277 121.829 14.5499 121.48 14.8959C121.342 15.0324 120.858 15.7102 123.871 19.6381C127.222 24.0038 129.861 25.8278 129.3 26.7503C129.044 27.1834 128.204 27.1904 126.566 27.2046C124.078 27.2234 122.574 26.6633 122.544 26.7503C122.474 26.9339 128.818 30.9325 135.373 29.6098C137.976 29.0826 138.191 28.1977 143.041 25.4253C149.278 21.848 153.508 19.4216 158.643 19.464C163.993 19.5063 167.99 22.2081 169.499 23.2295C174.385 26.5244 174.49 29.5839 179.52 35.084C182.286 38.1 185.491 40.7514 189.046 42.9634C188.204 43.6926 187.171 44.2091 186.048 44.4626C183.209 45.058 181.515 43.3541 180.696 43.8695C179.158 44.8274 182.233 52.4739 190.263 65.6604C193.937 71.69 196.053 75.1637 199.676 79.9907C205.33 87.5164 211.762 94.5223 218.883 100.911Z" fill="#D1D3D4" stroke="#231F20" stroke-width="0.25" stroke-miterlimit="10"/>
<path d="M162.514 98.2255C161.692 98.9315 160.605 99.6729 159.783 100.369C159.346 100.094 158.925 99.7968 158.522 99.4799C158.087 99.1386 157.641 98.7738 157.218 98.3832C156.926 98.1196 156.542 97.6771 156.288 97.4253C156.473 97.3892 156.644 97.3079 156.782 97.1899C157.787 96.3874 159.624 94.3658 159.934 94.0175L162.514 98.2255Z" fill="#D1D3D4" stroke="#231F20" stroke-width="0.25" stroke-miterlimit="10"/>
<path d="M90.6953 9.96299L89.322 10.8338C88.9887 10.9514 88.6781 11.1175 88.4022 11.3257C88.1998 9.81472 87.9384 7.9084 87.736 6.39747C87.7832 6.13971 87.9194 5.90272 88.1245 5.72146C88.3295 5.54021 88.5925 5.42428 88.8747 5.39079C89.157 5.3573 89.4434 5.40801 89.6919 5.53545C89.9403 5.66289 90.1376 5.86031 90.2546 6.09858C90.4007 7.32474 90.5493 8.73683 90.6953 9.96299Z" fill="#D1D3D4" stroke="#231F20" stroke-width="0.25" stroke-miterlimit="10"/>
<path d="M92.1763 18.6614C91.9218 19.7597 91.6655 20.8525 91.4076 21.9398L89.8344 19.1486C89.7191 18.4638 89.5346 17.2964 89.4193 16.6116C89.6894 15.9056 90.1675 15.2824 90.8004 14.8112C91.0653 14.6143 91.3553 14.4475 91.6638 14.3146L91.9713 16.974C92.043 17.5483 92.1122 18.1225 92.1763 18.6614Z" fill="#D1D3D4" stroke="#231F20" stroke-width="0.25" stroke-miterlimit="10"/>
<path d="M69.4316 91.9886C69.4316 91.9886 69.4316 92.0003 69.4316 92.005" stroke="#231F20" stroke-width="0.25" stroke-miterlimit="10"/>
<path d="M64.94 99.6917C64.8272 100.423 64.7137 101.155 64.5992 101.887L64.9195 101.593" stroke="#231F20" stroke-width="0.25" stroke-miterlimit="10"/>
<path d="M73.2672 96.8063C73.2019 96.926 73.1496 97.0514 73.1109 97.1805C72.2975 97.2584 71.4899 97.3802 70.6921 97.5453C70.0208 97.6865 69.1548 97.9336 68.586 98.103C68.767 97.55 68.8055 96.9659 68.6987 96.3968C69.7293 96.2803 70.7199 95.959 71.6017 95.4554L71.7939 95.3424L73.2672 96.8063Z" fill="#D1D3D4" stroke="#231F20" stroke-width="0.25" stroke-miterlimit="10"/>
<path d="M77.2027 97.7524C77.1585 98.1513 76.9793 98.5274 76.6903 98.8279C76.1035 99.4021 75.2503 99.195 74.2997 99.3245C73.0955 99.4869 71.4506 100.228 69.6878 102.906C69.0425 103.037 68.3831 103.098 67.7225 103.09H67.3433C66.198 103.062 65.8931 102.968 65.7317 102.855C65.2602 102.553 64.9912 101.885 64.9118 101.593L66.4696 100.162C67.0753 99.9466 67.6064 99.5848 68.0069 99.115C68.2617 98.8117 68.4552 98.469 68.5783 98.103C69.1394 97.9336 70.0132 97.6865 70.6845 97.5453C71.4822 97.3802 72.2898 97.2583 73.1032 97.1805C73.1419 97.0514 73.1942 96.926 73.2595 96.8063C73.3846 96.5592 73.5625 96.3378 73.7826 96.155C74.0026 95.9723 74.2604 95.832 74.5406 95.7425C74.6917 95.6946 74.8481 95.6622 75.0069 95.646C75.2938 95.6082 75.5862 95.6275 75.8643 95.7027C76.1424 95.7778 76.3996 95.9069 76.6185 96.0814C76.6887 96.1411 76.7538 96.2056 76.8133 96.2744C76.9816 96.4847 77.1027 96.7237 77.1695 96.9775C77.2364 97.2312 77.2477 97.4946 77.2027 97.7524Z" fill="#D1D3D4" stroke="#231F20" stroke-width="0.25" stroke-miterlimit="10"/>
<path d="M79.1475 99.5811C79.1029 99.9453 78.9505 100.291 78.7068 100.581C78.5105 100.821 78.2693 101.027 77.9945 101.189L71.0765 105.086C70.9207 105.141 70.782 105.231 70.6726 105.347C70.5631 105.463 70.4863 105.602 70.4487 105.752C70.4203 105.938 70.461 106.127 70.564 106.289L70.4359 106.326C70.0593 106.42 68.9627 106.623 68.0864 105.987C67.7373 105.729 67.4759 105.384 67.3331 104.994C67.3331 104.385 67.3331 103.697 67.351 103.085H67.7302C68.3908 103.094 69.0502 103.032 69.6955 102.902C71.4583 100.224 73.1032 99.4823 74.3074 99.3199C75.258 99.1904 76.101 99.3975 76.698 98.8233C76.987 98.5228 77.1662 98.1466 77.2104 97.7477H77.236C77.3712 97.7084 77.5102 97.6816 77.6511 97.6677C77.8991 97.6333 78.1526 97.673 78.374 97.7811C78.5955 97.8892 78.7733 98.0598 78.881 98.2679C79.1082 98.6721 79.2008 99.1288 79.1475 99.5811Z" fill="#D1D3D4" stroke="#231F20" stroke-width="0.25" stroke-miterlimit="10"/>
<path d="M80.408 102.605C80.3004 103 80.0698 103.358 79.7444 103.634L79.3345 103.947C78.2683 104.749 77.1434 105.484 75.9677 106.145C75.7807 106.251 75.5911 106.354 75.3964 106.458C74.391 106.994 73.3524 107.476 72.2858 107.901C72.008 107.913 71.7306 107.867 71.4743 107.768C71.218 107.669 70.9893 107.518 70.8049 107.326C70.5835 107.033 70.4557 106.688 70.4359 106.331L70.564 106.293C70.461 106.131 70.4203 105.942 70.4487 105.757C70.4863 105.607 70.5631 105.468 70.6726 105.352C70.782 105.236 70.9206 105.146 71.0765 105.091L77.9944 101.193C78.2692 101.031 78.5104 100.826 78.7067 100.586C78.8916 100.553 79.0807 100.546 79.2679 100.565C79.4423 100.58 79.6111 100.63 79.7624 100.712C79.9137 100.793 80.0439 100.903 80.1441 101.035C80.276 101.198 80.3638 101.387 80.4003 101.586C80.4328 101.7 80.4551 101.817 80.467 101.935C80.4876 102.16 80.4677 102.386 80.408 102.605Z" fill="#D1D3D4" stroke="#231F20" stroke-width="0.25" stroke-miterlimit="10"/>
<path d="M160.7 103.427L160.654 103.457C160.381 103.597 160.074 103.673 159.761 103.678C159.448 103.683 159.139 103.617 158.86 103.486C158.439 103.31 158.073 103.038 157.8 102.695C157.759 102.648 157.723 102.598 157.687 102.549L157.08 100.946C156.111 101.132 155.112 101.138 154.141 100.964C153.17 100.79 152.247 100.44 151.425 99.9342L151.046 97.3195C151.44 97.3053 151.507 97.1429 152.373 96.9005C153.008 96.724 153.746 96.5169 154.5 96.6228C155.389 96.7452 155.629 97.536 156.293 97.4254C156.549 97.6819 156.931 98.1314 157.223 98.3832C157.646 98.7645 158.092 99.1387 158.527 99.4799C158.93 99.7968 159.351 100.094 159.788 100.37C159.901 100.355 160.49 100.153 160.964 100.563C161.21 100.798 161.357 101.107 161.379 101.433C161.458 101.956 161.412 102.965 160.7 103.427Z" fill="#D1D3D4" stroke="#231F20" stroke-width="0.25" stroke-miterlimit="10"/>
<path d="M160.7 103.427C160.523 104.159 160.331 104.987 160.154 105.719C160.062 105.566 159.967 105.404 159.872 105.236" stroke="#231F20" stroke-width="0.25" stroke-miterlimit="10"/>
<path d="M157.805 102.695C157.106 102.521 156.372 102.501 155.663 102.636C154.844 102.848 154.123 103.302 153.613 103.928C153.62 103.687 153.575 103.447 153.48 103.222C153.35 102.919 153.142 102.65 152.874 102.436C152.607 102.223 152.287 102.072 151.942 101.996L153.224 100.755C154.468 101.138 155.801 101.209 157.085 100.96L157.692 102.563C157.733 102.598 157.764 102.641 157.805 102.695Z" fill="#D1D3D4" stroke="#231F20" stroke-width="0.25" stroke-miterlimit="10"/>
<path d="M159.872 105.229C159.763 105.345 159.645 105.454 159.519 105.554C159.382 105.668 159.227 105.764 159.06 105.837C158.412 106.1 158.066 105.82 157.372 105.942C156.483 106.098 156.442 106.649 155.578 106.849C155.012 106.958 154.422 106.884 153.908 106.639C153.618 106.187 153.139 105.634 152.429 105.462C151.72 105.291 151.404 105.637 150.797 105.427C150.438 105.285 150.133 105.048 149.92 104.747C149.708 104.446 149.596 104.094 149.601 103.735C149.604 103.557 149.638 103.381 149.701 103.212C149.702 103.201 149.706 103.189 149.713 103.18C149.868 102.777 150.167 102.436 150.561 102.21C150.826 102.055 151.128 101.963 151.44 101.942C151.607 101.931 151.774 101.94 151.937 101.97C152.282 102.046 152.602 102.197 152.869 102.41C153.137 102.624 153.344 102.893 153.475 103.196C153.57 103.421 153.615 103.661 153.608 103.902C154.118 103.276 154.838 102.822 155.658 102.61C156.367 102.475 157.101 102.495 157.8 102.669C158.073 103.012 158.438 103.284 158.86 103.46C159.181 104.013 159.527 104.657 159.872 105.229Z" fill="#D1D3D4" stroke="#231F20" stroke-width="0.25" stroke-miterlimit="10"/>
<path d="M160.008 107.112C159.87 108.289 158.607 108.83 158.548 108.854L158.32 108.948C157.935 109.1 157.534 109.215 157.123 109.292C156.389 109.457 155.624 109.468 154.884 109.324C153.482 109 153.567 108.148 152.247 107.825C151.099 107.548 150.774 108.129 149.875 107.738C149.343 107.484 148.918 107.075 148.665 106.576C148.51 106.284 148.387 105.979 148.299 105.665C148.212 105.41 148.159 105.147 148.14 104.881C148.133 104.678 148.171 104.476 148.253 104.288C148.388 104.006 148.609 103.766 148.888 103.596C149.136 103.439 149.409 103.32 149.698 103.241C149.635 103.409 149.601 103.585 149.598 103.763C149.594 104.122 149.705 104.474 149.918 104.775C150.131 105.076 150.436 105.313 150.795 105.455C151.402 105.665 151.743 105.335 152.427 105.491C153.111 105.646 153.616 106.197 153.905 106.667C154.419 106.912 155.009 106.986 155.576 106.877C156.431 106.686 156.472 106.126 157.369 105.971C158.064 105.848 158.409 106.128 159.058 105.865C159.225 105.792 159.379 105.697 159.516 105.582C159.856 106.03 160.028 106.567 160.008 107.112Z" fill="#D1D3D4" stroke="#231F20" stroke-width="0.25" stroke-miterlimit="10"/>
<path d="M158.32 108.936C158.245 109.247 157.976 110.348 157.01 111.04C155.499 112.13 153.646 111.612 153.48 111.563C153.03 111.118 152.489 110.76 151.888 110.509C151.287 110.258 150.637 110.118 149.977 110.099C149.568 110.088 149.161 110.034 148.765 109.936C148.097 109.771 147.486 109.452 146.99 109.009C146.677 108.727 145.857 107.983 145.965 107.126C145.97 107.076 145.98 107.027 145.993 106.978C146.013 106.898 146.04 106.819 146.072 106.743C146.148 106.538 146.274 106.353 146.44 106.2C146.606 106.048 146.808 105.932 147.031 105.862C147.101 105.844 147.173 105.833 147.246 105.83C147.881 105.794 148.606 106.514 148.665 106.583C148.918 107.082 149.343 107.491 149.875 107.745C150.774 108.136 151.099 107.555 152.247 107.832C153.567 108.152 153.482 109.009 154.884 109.331C155.624 109.475 156.389 109.464 157.123 109.299C157.535 109.216 157.936 109.095 158.32 108.936Z" fill="#D1D3D4" stroke="#231F20" stroke-width="0.25" stroke-miterlimit="10"/>
</svg>
