<svg width="624" height="171" viewBox="0 0 624 171" fill="none" xmlns="http://www.w3.org/2000/svg">
<path d="M210.285 74.73C207.588 76.0462 205.153 76.7482 202.891 76.7482C202.108 76.7482 201.412 76.6604 200.803 76.5727L196.801 87.3653C198.454 87.6286 200.281 87.8041 202.195 87.7163C206.023 87.7163 209.937 86.8389 213.852 85.084L210.285 74.73ZM206.98 39.3687L210.894 28.8393H194.626V11.9045L182.447 13.2207V28.8393H171.312V39.3687H182.447V67.184C182.447 74.0281 184.187 79.205 187.58 82.7149C188.363 83.5046 189.233 84.2065 190.102 84.8207L195.061 71.3957C194.713 70.1673 194.539 68.7634 194.539 67.184V39.3687H206.98V39.3687Z" fill="#E6E7E8"/>
<path d="M248.824 27.3476C240.212 27.3476 233.078 30.0677 227.423 35.4202C221.769 40.8604 218.898 48.231 218.898 57.7075C218.898 67.4472 221.682 74.9933 227.249 80.4335C227.771 80.9599 228.38 81.4864 228.989 82.0129L232.817 71.7467L233.948 68.7633C232.034 65.6923 231.077 62.007 231.077 57.7075C231.077 51.8285 232.904 47.178 236.471 43.6682C238.907 41.2114 241.778 39.7197 245.083 38.93L246.127 36.0344L249.433 27.2599C249.172 27.3476 248.998 27.3476 248.824 27.3476ZM268.92 28.6638L268.572 37.8771C266.745 34.6305 264.048 32.0859 260.481 30.1555C259.177 29.4535 257.959 28.927 256.567 28.4883L252.826 38.579C255.088 38.8422 257.176 39.5442 259.003 40.5094C261.699 41.9133 263.7 43.756 265.092 46.0373C266.484 48.3187 267.528 50.8633 268.137 53.5834C268.833 56.3913 268.833 59.1114 268.137 61.8315C267.441 64.5516 266.484 67.0962 265.092 69.3776C263.7 71.6589 261.699 73.5016 259.003 74.9055C256.306 76.3094 253.261 77.0114 249.781 77.0114C245.866 77.0114 242.473 76.0462 239.516 74.1158L235.166 85.6982C239.081 87.4531 243.604 88.3305 248.563 88.3305C252.478 88.3305 256.306 87.3653 260.133 85.5227C263.961 83.5923 266.745 80.8722 268.485 77.3624L269.094 86.8388H280.577V28.4883H268.92V28.6638Z" fill="#E6E7E8"/>
<path d="M349.39 36.1221C343.91 30.4187 336.95 27.5231 328.337 27.5231C327.816 27.5231 327.381 27.5231 326.859 27.5231L325.206 31.9981L322.248 39.8951C323.727 39.5441 325.38 39.3687 327.12 39.3687C332.6 39.3687 337.037 41.1236 340.43 44.5456C343.823 47.9677 345.475 52.4427 345.475 57.9706C345.475 63.4108 343.736 67.8858 340.343 71.3079C336.863 74.8177 332.513 76.4848 327.207 76.4848C321.987 76.4848 317.637 74.7299 314.157 71.1324C313.2 70.1672 312.417 69.202 311.808 68.0613L307.981 78.4152L302.065 94.2093L295.888 91.8402V114.127H307.981V78.503C309.982 81.8373 312.939 84.2941 316.68 85.8735C320.508 87.5407 324.336 88.3304 328.337 88.3304C337.211 88.3304 344.258 85.5226 349.564 79.8191C354.871 74.1157 357.568 66.8329 357.568 57.9706C357.481 49.1084 354.784 41.8255 349.39 36.1221ZM316.593 30.2432C312.852 32.0858 309.982 34.7182 307.894 38.1402L307.198 28.6638H295.801V90.3485L309.199 54.3731C309.634 51.8285 310.504 49.5471 311.808 47.4412L318.507 29.4535C317.898 29.7167 317.202 29.9799 316.593 30.2432Z" fill="#E6E7E8"/>
<path d="M373.749 36.1221C368.268 41.9133 365.484 49.1084 365.484 57.8829C365.484 65.6922 367.659 72.3609 372.096 77.8011L375.489 68.6756L377.925 62.1824C377.664 60.8662 377.577 59.4623 377.577 57.9707C377.577 52.6182 379.23 48.0555 382.448 44.3702C383.405 43.2295 384.536 42.2643 385.667 41.5623L387.668 36.2976L390.8 27.8741C383.927 28.5761 378.273 31.3839 373.749 36.1221ZM416.985 36.2099C412.114 31.1207 405.937 28.3128 398.542 27.6108L394.367 38.7545C394.715 38.7545 395.063 38.7545 395.324 38.7545C400.456 38.7545 404.719 40.5971 408.112 44.3702C411.505 48.1432 413.158 52.6182 413.158 57.9707C413.158 63.3231 411.505 67.7981 408.286 71.4834C405.067 75.081 400.717 76.9236 395.324 76.9236C389.93 76.9236 385.58 75.081 382.448 71.4834C382.361 71.3957 382.361 71.3957 382.274 71.3079L377.838 83.2412C382.622 86.6633 388.538 88.3305 395.324 88.3305C404.284 88.3305 411.592 85.4349 417.072 79.7314C422.553 74.028 425.337 66.7452 425.337 57.9707C425.337 49.1961 422.553 42.0011 416.985 36.2099Z" fill="#E6E7E8"/>
<path d="M464.224 27.5231L460.483 37.6138C465.877 37.9648 470.313 39.7197 473.88 42.9662L480.666 34.8937C476.142 30.9452 470.661 28.4883 464.224 27.5231ZM441.605 31.5594C436.733 34.5427 434.297 38.93 434.297 44.8967C434.384 51.653 437.777 56.479 444.737 59.3746L448.652 48.9329C447.086 47.7922 446.303 46.3006 446.303 44.5457C446.303 42.2643 447.434 40.5094 449.608 39.281C450.478 38.7545 451.522 38.4035 452.653 38.1403L456.742 27.1721C451.087 27.4354 446.042 28.927 441.605 31.5594ZM481.101 61.3927C479.622 58.9359 477.621 57.0932 474.924 55.8648C472.227 54.6364 469.704 53.7589 467.268 53.2324C464.92 52.706 462.049 52.2672 458.743 52.004C457.438 51.9163 456.307 51.7408 455.263 51.4775L451.522 61.4805C453.436 61.9192 455.524 62.1824 457.786 62.4457C462.31 62.8844 465.703 63.7618 467.964 64.9025C470.226 66.0432 471.27 67.9736 471.183 70.4305C471.096 72.9751 469.878 74.8178 467.442 76.1339C465.007 77.3624 462.136 78.0643 458.83 78.0643C454.132 77.9766 449.956 77.0991 446.303 75.3442L442.475 85.6981C447.173 87.804 452.479 88.857 458.569 88.857C465.964 88.857 471.966 87.1898 476.403 83.7677C480.84 80.3457 483.102 75.8707 483.189 70.3427C483.276 66.8329 482.58 63.7618 481.101 61.3927ZM438.647 69.3775L432.296 78.0643C433.514 79.4682 434.906 80.7844 436.298 81.9251L440.3 71.2202C439.691 70.606 439.169 69.9918 438.647 69.3775Z" fill="#E6E7E8"/>
<path d="M543.65 36.1221C542.084 34.455 540.431 32.9633 538.517 31.7349L534.863 41.4746L534.428 42.6153C536.864 44.9844 538.169 48.1432 538.43 52.0917H530.862L527.034 62.3579H550.001C551.219 50.8633 549.044 42.1765 543.65 36.1221ZM538.865 70.7815C537.125 72.7119 534.689 74.2035 531.558 75.3442C528.426 76.4849 525.207 77.0991 522.075 77.0991C521.901 77.0991 521.814 77.0991 521.64 77.0991L517.464 88.2427C518.856 88.4182 520.335 88.506 521.814 88.506C526.512 88.506 531.123 87.6285 535.559 85.8736C540.083 84.1187 543.737 81.6619 546.695 78.503L538.865 70.7815ZM509.635 41.7378C512.854 39.281 516.769 38.0525 521.292 38.0525C523.815 38.0525 526.077 38.4035 528.078 39.0177L531.906 28.7515C528.6 27.6986 524.946 27.1721 520.944 27.1721C511.897 27.1721 504.589 29.98 499.022 35.6834C493.367 41.3868 490.583 48.6697 490.583 57.6197C490.583 67.0084 493.454 74.5545 499.109 80.0825C502.24 83.2413 505.981 85.4349 510.331 86.8388L514.42 75.9584C512.419 75.2565 510.679 74.379 509.113 73.0628C505.72 70.4305 503.719 66.8329 503.197 62.4457H519.465L523.293 52.1795H503.371C504.328 47.6167 506.416 44.1069 509.635 41.7378Z" fill="#E6E7E8"/>
<path d="M586.973 27.3476C578.274 27.3476 571.227 29.98 565.747 35.3324C560.266 40.6849 557.569 48.1432 557.569 57.7951C557.569 67.1839 560.353 74.6422 565.921 80.0824C568.792 82.8903 572.01 84.9961 575.751 86.3123L579.927 75.1687C578.1 74.2912 576.447 73.1505 574.968 71.6589C571.488 68.1491 569.748 63.5863 569.748 57.7951C569.748 51.9162 571.488 47.3535 574.968 43.9314C578.448 40.5094 582.798 38.8422 588.017 38.8422C589.844 38.8422 591.584 39.1054 593.15 39.5442L596.543 30.5064L596.978 29.4535C593.585 28.0496 590.192 27.3476 586.973 27.3476ZM607.243 4.27063V8.92112L611.593 10.5883L607.243 22.2584V37.7893C606.286 35.9466 604.894 34.3672 603.242 33.051L599.588 42.8785C600.11 43.3172 600.632 43.7559 601.067 44.1946C604.633 47.7044 606.373 52.2672 606.373 57.7951C606.373 63.4108 604.633 67.9736 601.067 71.4834C597.5 75.0809 593.15 76.8358 588.017 76.8358C587.669 76.8358 587.321 76.8358 586.886 76.8358L582.711 87.9795C584.103 88.155 585.582 88.2427 587.147 88.2427C596.282 88.2427 602.981 84.7329 607.243 77.801L607.939 87.0143H619.336V4.27063H607.243V4.27063Z" fill="#E6E7E8"/>
<path d="M286.58 103.774H176.444H113.808H0.540527" fill="#E6E7E8"/>
<path d="M286.58 103.774H176.444H113.808H0.540527" stroke="#E6E7E8" stroke-miterlimit="10"/>
<path d="M623.772 103.774H319.899Z" fill="#E6E7E8"/>
<path d="M623.772 103.774H319.899" stroke="#E6E7E8" stroke-miterlimit="10"/>
<path d="M7.68285 159.231V120.229H18.6924C22.0854 120.229 25.0856 120.979 27.6928 122.479C30.3001 123.979 32.3092 126.113 33.7199 128.881C35.1486 131.649 35.8718 134.828 35.8897 138.417V140.908C35.8897 144.587 35.1754 147.81 33.7467 150.578C32.3359 153.346 30.3091 155.472 27.6661 156.954C25.0409 158.436 21.9783 159.195 18.4781 159.231H7.68285ZM12.826 124.461V155.025H18.237C22.2015 155.025 25.282 153.793 27.4785 151.329C29.6929 148.864 30.8002 145.355 30.8002 140.801V138.524C30.8002 134.095 29.7555 130.658 27.6661 128.211C25.5945 125.747 22.6479 124.497 18.8263 124.461H12.826ZM54.9354 159.766C51.0066 159.766 47.81 158.481 45.3456 155.909C42.8812 153.32 41.6489 149.864 41.6489 145.542V144.632C41.6489 141.757 42.1936 139.194 43.283 136.944C44.3902 134.676 45.926 132.908 47.8903 131.64C49.8726 130.354 52.0156 129.711 54.3193 129.711C58.0873 129.711 61.016 130.952 63.1054 133.435C65.1948 135.917 66.2395 139.471 66.2395 144.096V146.159H46.6046C46.676 149.016 47.5064 151.329 49.0958 153.096C50.703 154.847 52.7388 155.722 55.2032 155.722C56.9533 155.722 58.4355 155.364 59.6499 154.65C60.8642 153.936 61.9268 152.989 62.8376 151.811L65.8645 154.168C63.4358 157.9 59.7928 159.766 54.9354 159.766ZM54.3193 133.783C52.3192 133.783 50.6405 134.515 49.2833 135.979C47.9261 137.426 47.0867 139.462 46.7653 142.087H61.2839V141.712C61.1411 139.194 60.4624 137.247 59.2481 135.872C58.0337 134.479 56.3908 133.783 54.3193 133.783ZM88.8747 151.543C88.8747 150.203 88.3657 149.168 87.3478 148.435C86.3478 147.685 84.5887 147.043 82.0707 146.507C79.5706 145.971 77.5794 145.328 76.0972 144.578C74.6328 143.828 73.5435 142.935 72.8292 141.899C72.1327 140.864 71.7845 139.631 71.7845 138.203C71.7845 135.828 72.7845 133.819 74.7846 132.176C76.8026 130.533 79.3742 129.711 82.4993 129.711C85.7852 129.711 88.4461 130.56 90.4819 132.256C92.5356 133.953 93.5624 136.122 93.5624 138.765H88.58C88.58 137.408 87.9996 136.238 86.8388 135.256C85.6959 134.274 84.2494 133.783 82.4993 133.783C80.6957 133.783 79.2849 134.176 78.267 134.962C77.2491 135.747 76.7401 136.774 76.7401 138.042C76.7401 139.239 77.2133 140.14 78.1598 140.748C79.1063 141.355 80.8117 141.935 83.2762 142.489C85.7584 143.042 87.7675 143.703 89.3033 144.471C90.8391 145.239 91.973 146.168 92.7052 147.257C93.4553 148.328 93.8303 149.641 93.8303 151.195C93.8303 153.784 92.7945 155.864 90.723 157.436C88.6514 158.99 85.9638 159.766 82.6601 159.766C80.3385 159.766 78.2848 159.356 76.499 158.534C74.7132 157.713 73.3113 156.57 72.2934 155.105C71.2934 153.623 70.7934 152.025 70.7934 150.311H75.749C75.8383 151.971 76.499 153.293 77.7312 154.275C78.9813 155.239 80.6242 155.722 82.6601 155.722C84.5352 155.722 86.0352 155.347 87.1603 154.597C88.3032 153.829 88.8747 152.811 88.8747 151.543ZM105.67 159.231H100.715V130.247H105.67V159.231ZM100.313 122.559C100.313 121.756 100.554 121.077 101.036 120.523C101.536 119.97 102.268 119.693 103.233 119.693C104.197 119.693 104.929 119.97 105.429 120.523C105.929 121.077 106.179 121.756 106.179 122.559C106.179 123.363 105.929 124.032 105.429 124.568C104.929 125.104 104.197 125.372 103.233 125.372C102.268 125.372 101.536 125.104 101.036 124.568C100.554 124.032 100.313 123.363 100.313 122.559ZM112.447 144.498C112.447 139.98 113.492 136.39 115.581 133.729C117.671 131.051 120.439 129.711 123.885 129.711C127.421 129.711 130.18 130.961 132.163 133.461L132.404 130.247H136.931V158.534C136.931 162.284 135.815 165.24 133.582 167.401C131.368 169.562 128.386 170.642 124.635 170.642C122.546 170.642 120.501 170.196 118.501 169.303C116.501 168.41 114.974 167.186 113.921 165.633L116.492 162.659C118.617 165.285 121.216 166.597 124.287 166.597C126.698 166.597 128.573 165.919 129.913 164.561C131.27 163.204 131.948 161.293 131.948 158.829V156.338C129.966 158.624 127.261 159.766 123.832 159.766C120.439 159.766 117.689 158.4 115.581 155.668C113.492 152.936 112.447 149.212 112.447 144.498ZM117.43 145.06C117.43 148.328 118.099 150.9 119.439 152.775C120.778 154.632 122.653 155.561 125.064 155.561C128.189 155.561 130.484 154.141 131.948 151.302V138.069C130.43 135.301 128.154 133.917 125.118 133.917C122.707 133.917 120.823 134.854 119.466 136.73C118.108 138.605 117.43 141.382 117.43 145.06ZM149.119 130.247L149.28 133.89C151.494 131.104 154.387 129.711 157.959 129.711C164.084 129.711 167.173 133.167 167.227 140.078V159.231H162.271V140.051C162.254 137.962 161.771 136.417 160.825 135.417C159.896 134.417 158.441 133.917 156.459 133.917C154.851 133.917 153.441 134.345 152.226 135.203C151.012 136.06 150.065 137.185 149.387 138.578V159.231H144.431V130.247H149.119ZM206.202 159.231C205.917 158.659 205.684 157.641 205.506 156.177C203.202 158.57 200.452 159.766 197.255 159.766C194.398 159.766 192.05 158.963 190.21 157.356C188.389 155.731 187.478 153.677 187.478 151.195C187.478 148.177 188.621 145.837 190.907 144.176C193.211 142.498 196.443 141.658 200.604 141.658H205.426V139.381C205.426 137.649 204.908 136.274 203.872 135.256C202.836 134.22 201.309 133.703 199.291 133.703C197.523 133.703 196.041 134.149 194.845 135.042C193.648 135.935 193.05 137.015 193.05 138.283H188.067C188.067 136.837 188.576 135.444 189.594 134.104C190.63 132.747 192.023 131.676 193.773 130.89C195.541 130.104 197.479 129.711 199.586 129.711C202.925 129.711 205.542 130.551 207.435 132.229C209.328 133.89 210.31 136.185 210.381 139.114V152.454C210.381 155.114 210.72 157.231 211.399 158.802V159.231H206.202ZM197.979 155.454C199.532 155.454 201.006 155.052 202.399 154.248C203.792 153.445 204.8 152.4 205.426 151.114V145.167H201.541C195.47 145.167 192.434 146.944 192.434 150.498C192.434 152.052 192.952 153.266 193.987 154.141C195.023 155.016 196.354 155.454 197.979 155.454ZM222.837 130.247L222.998 133.89C225.212 131.104 228.105 129.711 231.677 129.711C237.802 129.711 240.892 133.167 240.945 140.078V159.231H235.99V140.051C235.972 137.962 235.49 136.417 234.543 135.417C233.615 134.417 232.159 133.917 230.177 133.917C228.57 133.917 227.159 134.345 225.944 135.203C224.73 136.06 223.784 137.185 223.105 138.578V159.231H218.149V130.247H222.837ZM247.213 144.498C247.213 140.051 248.267 136.48 250.374 133.783C252.482 131.069 255.241 129.711 258.652 129.711C262.045 129.711 264.732 130.872 266.714 133.194V118.086H271.67V159.231H267.116L266.875 156.123C264.893 158.552 262.134 159.766 258.598 159.766C255.241 159.766 252.499 158.391 250.374 155.641C248.267 152.891 247.213 149.302 247.213 144.873V144.498ZM252.169 145.06C252.169 148.346 252.848 150.918 254.205 152.775C255.562 154.632 257.437 155.561 259.83 155.561C262.973 155.561 265.268 154.15 266.714 151.329V138.015C265.232 135.283 262.955 133.917 259.884 133.917C257.455 133.917 255.562 134.854 254.205 136.73C252.848 138.605 252.169 141.382 252.169 145.06ZM293.769 159.231V120.229H304.779C308.172 120.229 311.172 120.979 313.779 122.479C316.387 123.979 318.396 126.113 319.807 128.881C321.235 131.649 321.958 134.828 321.976 138.417V140.908C321.976 144.587 321.262 147.81 319.833 150.578C318.423 153.346 316.396 155.472 313.753 156.954C311.128 158.436 308.065 159.195 304.565 159.231H293.769ZM298.913 124.461V155.025H304.324C308.288 155.025 311.369 153.793 313.565 151.329C315.78 148.864 316.887 145.355 316.887 140.801V138.524C316.887 134.095 315.842 130.658 313.753 128.211C311.681 125.747 308.735 124.497 304.913 124.461H298.913ZM341.022 159.766C337.093 159.766 333.897 158.481 331.432 155.909C328.968 153.32 327.736 149.864 327.736 145.542V144.632C327.736 141.757 328.28 139.194 329.37 136.944C330.477 134.676 332.013 132.908 333.977 131.64C335.959 130.354 338.102 129.711 340.406 129.711C344.174 129.711 347.103 130.952 349.192 133.435C351.281 135.917 352.326 139.471 352.326 144.096V146.159H332.691C332.763 149.016 333.593 151.329 335.182 153.096C336.79 154.847 338.825 155.722 341.29 155.722C343.04 155.722 344.522 155.364 345.737 154.65C346.951 153.936 348.013 152.989 348.924 151.811L351.951 154.168C349.522 157.9 345.879 159.766 341.022 159.766ZM340.406 133.783C338.406 133.783 336.727 134.515 335.37 135.979C334.013 137.426 333.173 139.462 332.852 142.087H347.371V141.712C347.228 139.194 346.549 137.247 345.335 135.872C344.12 134.479 342.477 133.783 340.406 133.783ZM367.273 152.507L374.452 130.247H379.515L369.122 159.231H365.345L354.844 130.247H359.907L367.273 152.507ZM395.936 159.766C392.007 159.766 388.81 158.481 386.346 155.909C383.881 153.32 382.649 149.864 382.649 145.542V144.632C382.649 141.757 383.194 139.194 384.283 136.944C385.39 134.676 386.926 132.908 388.891 131.64C390.873 130.354 393.016 129.711 395.32 129.711C399.088 129.711 402.016 130.952 404.106 133.435C406.195 135.917 407.24 139.471 407.24 144.096V146.159H387.605C387.676 149.016 388.507 151.329 390.096 153.096C391.703 154.847 393.739 155.722 396.204 155.722C397.954 155.722 399.436 155.364 400.65 154.65C401.865 153.936 402.927 152.989 403.838 151.811L406.865 154.168C404.436 157.9 400.793 159.766 395.936 159.766ZM395.32 133.783C393.319 133.783 391.641 134.515 390.284 135.979C388.926 137.426 388.087 139.462 387.766 142.087H402.284V141.712C402.141 139.194 401.463 137.247 400.248 135.872C399.034 134.479 397.391 133.783 395.32 133.783ZM418.383 159.231H413.428V118.086H418.383V159.231ZM425.026 144.471C425.026 141.632 425.58 139.078 426.687 136.81C427.812 134.542 429.366 132.792 431.348 131.56C433.348 130.327 435.625 129.711 438.179 129.711C442.126 129.711 445.313 131.077 447.742 133.81C450.189 136.542 451.412 140.176 451.412 144.712V145.06C451.412 147.882 450.867 150.418 449.778 152.668C448.706 154.9 447.162 156.641 445.144 157.891C443.144 159.141 440.84 159.766 438.233 159.766C434.304 159.766 431.116 158.4 428.67 155.668C426.241 152.936 425.026 149.319 425.026 144.819V144.471ZM430.009 145.06C430.009 148.275 430.75 150.855 432.232 152.802C433.732 154.748 435.732 155.722 438.233 155.722C440.751 155.722 442.751 154.739 444.233 152.775C445.715 150.793 446.456 148.025 446.456 144.471C446.456 141.292 445.697 138.721 444.179 136.756C442.679 134.774 440.679 133.783 438.179 133.783C435.732 133.783 433.759 134.756 432.259 136.703C430.759 138.649 430.009 141.435 430.009 145.06ZM482.11 145.06C482.11 149.471 481.101 153.025 479.083 155.722C477.065 158.418 474.333 159.766 470.886 159.766C467.368 159.766 464.6 158.65 462.582 156.418V170.374H457.626V130.247H462.153L462.395 133.461C464.412 130.961 467.216 129.711 470.806 129.711C474.288 129.711 477.038 131.024 479.056 133.649C481.092 136.274 482.11 139.926 482.11 144.605V145.06ZM477.154 144.498C477.154 141.23 476.458 138.649 475.065 136.756C473.672 134.863 471.761 133.917 469.332 133.917C466.332 133.917 464.082 135.247 462.582 137.908V151.757C464.064 154.4 466.332 155.722 469.386 155.722C471.761 155.722 473.645 154.784 475.038 152.909C476.449 151.016 477.154 148.212 477.154 144.498ZM493.093 130.247L493.227 133.461C495.352 130.961 498.218 129.711 501.825 129.711C505.879 129.711 508.638 131.265 510.102 134.372C511.067 132.979 512.317 131.854 513.853 130.997C515.406 130.14 517.237 129.711 519.344 129.711C525.701 129.711 528.934 133.078 529.041 139.81V159.231H524.085V140.105C524.085 138.033 523.612 136.488 522.666 135.471C521.719 134.435 520.13 133.917 517.898 133.917C516.058 133.917 514.531 134.47 513.317 135.578C512.103 136.667 511.397 138.14 511.201 139.998V159.231H506.218V140.239C506.218 136.024 504.156 133.917 500.03 133.917C496.78 133.917 494.557 135.301 493.36 138.069V159.231H488.405V130.247H493.093ZM548.569 159.766C544.64 159.766 541.443 158.481 538.979 155.909C536.515 153.32 535.282 149.864 535.282 145.542V144.632C535.282 141.757 535.827 139.194 536.916 136.944C538.024 134.676 539.559 132.908 541.524 131.64C543.506 130.354 545.649 129.711 547.953 129.711C551.721 129.711 554.649 130.952 556.739 133.435C558.828 135.917 559.873 139.471 559.873 144.096V146.159H540.238C540.309 149.016 541.14 151.329 542.729 153.096C544.336 154.847 546.372 155.722 548.837 155.722C550.587 155.722 552.069 155.364 553.283 154.65C554.498 153.936 555.56 152.989 556.471 151.811L559.498 154.168C557.069 157.9 553.426 159.766 548.569 159.766ZM547.953 133.783C545.953 133.783 544.274 134.515 542.917 135.979C541.559 137.426 540.72 139.462 540.399 142.087H554.917V141.712C554.774 139.194 554.096 137.247 552.881 135.872C551.667 134.479 550.024 133.783 547.953 133.783ZM570.32 130.247L570.481 133.89C572.695 131.104 575.588 129.711 579.16 129.711C585.285 129.711 588.374 133.167 588.428 140.078V159.231H583.472V140.051C583.455 137.962 582.972 136.417 582.026 135.417C581.097 134.417 579.642 133.917 577.66 133.917C576.052 133.917 574.642 134.345 573.427 135.203C572.213 136.06 571.266 137.185 570.588 138.578V159.231H565.632V130.247H570.32ZM602.625 123.229V130.247H608.036V134.078H602.625V152.052C602.625 153.213 602.866 154.088 603.348 154.677C603.831 155.248 604.652 155.534 605.813 155.534C606.384 155.534 607.17 155.427 608.17 155.213V159.231C606.866 159.588 605.599 159.766 604.366 159.766C602.152 159.766 600.482 159.097 599.357 157.757C598.232 156.418 597.67 154.516 597.67 152.052V134.078H592.393V130.247H597.67V123.229H602.625Z" fill="#E6E7E8"/>
<path d="M58.6531 94.1217C60.828 93.5074 63.0029 92.7177 64.9168 91.7525C70.7454 88.9447 75.1822 84.9961 78.227 79.7314C81.2718 74.5545 82.8377 68.4123 82.8377 61.4805V29.0148L58.6531 94.1217ZM79.6189 0.673096H66.3957C64.5688 0.673096 63.1769 2.16476 63.1769 3.91966V58.0584C63.1769 59.2868 63.1769 60.5153 63.0029 61.656L79.7929 16.555L82.8377 17.6957V3.91966C82.8377 2.16476 81.4458 0.673096 79.6189 0.673096ZM44.7339 79.205C38.0353 79.205 33.2506 77.5378 30.3798 74.1158C27.5089 70.7814 26.03 65.429 26.03 58.1462V3.91966C26.03 2.07701 24.5511 0.673096 22.8112 0.673096H9.67499C7.8481 0.673096 6.45618 2.16476 6.45618 3.91966V61.2172C6.45618 72.0099 9.76198 80.4334 16.3736 86.6633C22.9852 92.8932 32.2937 95.9643 44.299 95.9643C46.3869 95.9643 48.4747 95.8765 50.3886 95.7011L58.1312 74.9055C55.1733 77.801 50.7366 79.205 44.7339 79.205Z" fill="#06D6A0"/>
<path d="M178.445 90.8751L150.433 48.6697C149.998 48.0555 149.911 47.3535 150.085 46.6515C150.085 46.5638 150.172 46.3883 150.172 46.3006C150.259 46.2128 150.259 46.1251 150.346 45.9496L164.004 24.1888L174.182 7.95594L176.357 4.53389C177.401 2.86673 176.183 0.760846 174.269 0.760846H158.784C157.914 0.760846 157.131 1.19957 156.696 1.98927L151.477 10.8515L155.218 12.2554L148.78 29.4535L143.473 43.7559L143.386 44.1069L136.949 61.3927C137.645 61.4805 138.34 61.8315 138.775 62.5334L157.653 93.5074C158.088 94.2094 158.871 94.6481 159.741 94.6481H176.357C178.358 94.6481 179.489 92.4545 178.445 90.8751ZM139.819 30.9452C138.862 32.5246 136.601 32.5246 135.644 30.9452L118.419 1.90154C117.984 1.19957 117.201 0.673096 116.331 0.673096H100.411C98.4968 0.673096 97.2789 2.86673 98.3228 4.44614L123.986 44.8089C124.421 45.4231 124.508 46.2128 124.247 46.9148C124.247 47.0025 124.16 47.0903 124.16 47.178C124.16 47.2658 124.16 47.2658 124.073 47.3535C124.073 47.4412 123.986 47.4413 123.986 47.529L96.3219 90.8751C95.278 92.5422 96.4089 94.6481 98.4098 94.6481H113.721C114.591 94.6481 115.374 94.2094 115.809 93.5074L119.898 86.8388L133.295 50.8633L133.382 50.6878L133.469 50.4246L142.255 26.9089L139.819 30.9452Z" fill="#06D6A0"/>
</svg>
