<svg xmlns="http://www.w3.org/2000/svg" viewBox="0 0 409.72 329.16"><defs><style>.cls-1{fill:#ecc091;}.cls-2{fill:none;}</style></defs><g id="Layer_2" data-name="Layer 2"><g id="Layer_1-2" data-name="Layer 1"><path class="cls-1" d="M409.72,278.47v10.76a39.93,39.93,0,0,1-39.93,39.93H39.93A39.93,39.93,0,0,1,0,289.23V278.47a11.1,11.1,0,0,1,11.11-11.11h152v.95a19.41,19.41,0,0,0,19.4,19.4h41.07a19.41,19.41,0,0,0,19.4-19.4v-.95H398.61A11.1,11.1,0,0,1,409.72,278.47Z"/><path class="cls-1" d="M337.15,0H72.57A31.25,31.25,0,0,0,41.32,31.25V245.83H368.4V31.25A31.25,31.25,0,0,0,337.15,0Zm-9.81,205.55H81.51V41H327.34Z"/><rect class="cls-2" x="81.51" y="40.97" width="245.83" height="164.58"/><rect class="cls-2" x="81.51" y="40.97" width="245.83" height="164.58"/></g></g></svg>